StickNoBills-Light.ufo
<glyph name="uni0021" format="1">
  <advance width="329"/>
  <unicode hex="0021"/>
  <outline>
    <contour>
      <point x="139" y="12" type="curve" smooth="yes"/>
      <point x="139" y="26"/>
      <point x="151" y="38"/>
      <point x="165" y="38" type="curve" smooth="yes"/>
      <point x="179" y="38"/>
      <point x="191" y="26"/>
      <point x="191" y="12" type="curve" smooth="yes"/>
      <point x="191" y="-2"/>
      <point x="179" y="-14"/>
      <point x="165" y="-14" type="curve" smooth="yes"/>
      <point x="151" y="-14"/>
      <point x="139" y="-2"/>
    </contour>
    <contour>
      <point x="145" y="79" type="line"/>
      <point x="145" y="700" type="line"/>
      <point x="185" y="700" type="line"/>
      <point x="185" y="79" type="line"/>
    </contour>
  </outline>
</glyph>
<glyph name="uni0022" format="1">
  <advance width="407"/>
  <unicode hex="0022"/>
  <outline>
    <contour>
      <point x="137" y="465" type="line"/>
      <point x="137" y="736" type="line"/>
      <point x="177" y="736" type="line"/>
      <point x="177" y="465" type="line"/>
    </contour>
    <contour>
      <point x="230" y="465" type="line"/>
      <point x="230" y="736" type="line"/>
      <point x="270" y="736" type="line"/>
      <point x="270" y="465" type="line"/>
    </contour>
  </outline>
</glyph>
<glyph name="uni0023" format="1">
  <advance width="888"/>
  <unicode hex="0023"/>
  <outline>
    <contour>
      <point x="110" y="218" type="line"/>
      <point x="117" y="256" type="line"/>
      <point x="296" y="256" type="line"/>
      <point x="329" y="446" type="line"/>
      <point x="143" y="446" type="line"/>
      <point x="149" y="484" type="line"/>
      <point x="335" y="484" type="line"/>
      <point x="370" y="682" type="line"/>
      <point x="410" y="682" type="line"/>
      <point x="375" y="484" type="line"/>
      <point x="562" y="484" type="line"/>
      <point x="596" y="682" type="line"/>
      <point x="636" y="682" type="line"/>
      <point x="602" y="484" type="line"/>
      <point x="780" y="484" type="line"/>
      <point x="774" y="445" type="line"/>
      <point x="595" y="446" type="line"/>
      <point x="562" y="255" type="line"/>
      <point x="745" y="255" type="line"/>
      <point x="740" y="217" type="line"/>
      <point x="555" y="218" type="line"/>
      <point x="521" y="22" type="line"/>
      <point x="481" y="22" type="line"/>
      <point x="515" y="218" type="line"/>
      <point x="329" y="218" type="line"/>
      <point x="294" y="22" type="line"/>
      <point x="254" y="22" type="line"/>
      <point x="289" y="218" type="line"/>
    </contour>
    <contour>
      <point x="336" y="256" type="line"/>
      <point x="522" y="255" type="line"/>
      <point x="555" y="446" type="line"/>
      <point x="369" y="446" type="line"/>
    </contour>
  </outline>
</glyph>
<glyph name="uni0024" format="1">
  <advance width="497"/>
  <unicode hex="0024"/>
  <outline>
    <contour>
      <point x="31" y="158" type="curve"/>
      <point x="68" y="171" type="line"/>
      <point x="94" y="42"/>
      <point x="219" y="35"/>
      <point x="219" y="35" type="curve"/>
      <point x="219" y="-47" type="line"/>
      <point x="189" y="-47" type="line"/>
      <point x="189" y="-1" type="line"/>
      <point x="92" y="15"/>
      <point x="32" y="108"/>
    </contour>
    <contour>
      <point x="39" y="514" type="curve" smooth="yes"/>
      <point x="39" y="628"/>
      <point x="129" y="682"/>
      <point x="189" y="696" type="curve"/>
      <point x="189" y="750" type="line"/>
      <point x="219" y="750" type="line"/>
      <point x="219" y="662" type="line"/>
      <point x="187" y="662"/>
      <point x="79" y="622"/>
      <point x="79" y="508" type="curve" smooth="yes"/>
      <point x="79" y="434"/>
      <point x="147" y="405"/>
      <point x="219" y="389" type="curve"/>
      <point x="219" y="348" type="line"/>
      <point x="196" y="352"/>
      <point x="176" y="355"/>
      <point x="162" y="360" type="curve" smooth="yes"/>
      <point x="88" y="388"/>
      <point x="39" y="421"/>
    </contour>
    <contour>
      <point x="264" y="35" type="line"/>
      <point x="317" y="35"/>
      <point x="432" y="100"/>
      <point x="432" y="209" type="curve" smooth="yes"/>
      <point x="432" y="300"/>
      <point x="343" y="326"/>
      <point x="264" y="340" type="curve"/>
      <point x="264" y="380" type="line"/>
      <point x="294" y="375"/>
      <point x="323" y="371"/>
      <point x="344" y="365" type="curve" smooth="yes"/>
      <point x="413" y="346"/>
      <point x="472" y="311"/>
      <point x="472" y="203" type="curve" smooth="yes"/>
      <point x="472" y="108"/>
      <point x="395" y="15"/>
      <point x="294" y="-1" type="curve"/>
      <point x="294" y="-47" type="line"/>
      <point x="264" y="-47" type="line"/>
    </contour>
    <contour>
      <point x="264" y="662" type="curve"/>
      <point x="264" y="750" type="line"/>
      <point x="294" y="750" type="line"/>
      <point x="294" y="697" type="line"/>
      <point x="385" y="680"/>
      <point x="437" y="591"/>
      <point x="444" y="553" type="curve"/>
      <point x="406" y="541" type="line"/>
      <point x="374" y="658"/>
      <point x="264" y="662"/>
    </contour>
  </outline>
</glyph>
<glyph name="uni0025" format="1">
  <advance width="629"/>
  <unicode hex="0025"/>
  <outline>
    <contour>
      <point x="203" y="-23" type="line"/>
      <point x="378" y="716" type="line"/>
      <point x="418" y="716" type="line"/>
      <point x="244" y="-23" type="line"/>
    </contour>
    <contour>
      <point x="248" y="576" type="curve" smooth="yes"/>
      <point x="248" y="590"/>
      <point x="260" y="602"/>
      <point x="274" y="602" type="curve" smooth="yes"/>
      <point x="288" y="602"/>
      <point x="300" y="590"/>
      <point x="300" y="576" type="curve" smooth="yes"/>
      <point x="300" y="562"/>
      <point x="288" y="550"/>
      <point x="274" y="550" type="curve" smooth="yes"/>
      <point x="260" y="550"/>
      <point x="248" y="562"/>
    </contour>
    <contour>
      <point x="319" y="115" type="curve" smooth="yes"/>
      <point x="319" y="129"/>
      <point x="331" y="141"/>
      <point x="345" y="141" type="curve" smooth="yes"/>
      <point x="359" y="141"/>
      <point x="371" y="129"/>
      <point x="371" y="115" type="curve" smooth="yes"/>
      <point x="371" y="101"/>
      <point x="359" y="89"/>
      <point x="345" y="89" type="curve" smooth="yes"/>
      <point x="331" y="89"/>
      <point x="319" y="101"/>
    </contour>
  </outline>
</glyph>
<glyph name="uni0026" format="1">
  <advance width="686"/>
  <unicode hex="0026"/>
  <outline>
    <contour>
      <point x="26" y="209" type="curve" smooth="yes"/>
      <point x="26" y="306"/>
      <point x="80" y="370"/>
      <point x="150" y="404" type="curve"/>
      <point x="123" y="438"/>
      <point x="94" y="483"/>
      <point x="94" y="536" type="curve" smooth="yes"/>
      <point x="94" y="619"/>
      <point x="153" y="681"/>
      <point x="257" y="702" type="curve"/>
      <point x="257" y="664" type="line"/>
      <point x="236" y="659"/>
      <point x="134" y="629"/>
      <point x="134" y="536" type="curve" smooth="yes"/>
      <point x="134" y="450"/>
      <point x="251" y="362"/>
      <point x="257" y="356" type="curve"/>
      <point x="257" y="300" type="line"/>
      <point x="172" y="374" type="line"/>
      <point x="145" y="355"/>
      <point x="66" y="320"/>
      <point x="66" y="209" type="curve" smooth="yes"/>
      <point x="66" y="113"/>
      <point x="142" y="41"/>
      <point x="257" y="41" type="curve"/>
      <point x="257" y="3" type="line"/>
      <point x="107" y="3"/>
      <point x="26" y="98"/>
    </contour>
    <contour>
      <point x="317" y="16" type="line"/>
      <point x="361" y="23"/>
      <point x="441" y="86"/>
      <point x="472" y="121" type="curve"/>
      <point x="599" y="16" type="line"/>
      <point x="661" y="16" type="line"/>
      <point x="498" y="151" type="line"/>
      <point x="530" y="190"/>
      <point x="579" y="260"/>
      <point x="593" y="345" type="curve"/>
      <point x="553" y="345" type="line"/>
      <point x="537" y="264"/>
      <point x="498" y="215"/>
      <point x="467" y="178" type="curve"/>
      <point x="317" y="306" type="line"/>
      <point x="317" y="251" type="line"/>
      <point x="440" y="148" type="line"/>
      <point x="424" y="126"/>
      <point x="374" y="76"/>
      <point x="317" y="54" type="curve"/>
    </contour>
    <contour>
      <point x="317" y="350" type="line"/>
      <point x="374" y="353"/>
      <point x="477" y="410"/>
      <point x="477" y="529" type="curve" smooth="yes"/>
      <point x="477" y="614"/>
      <point x="424" y="681"/>
      <point x="317" y="700" type="curve"/>
      <point x="317" y="662" type="line"/>
      <point x="343" y="656"/>
      <point x="437" y="631"/>
      <point x="437" y="529" type="curve" smooth="yes"/>
      <point x="437" y="439"/>
      <point x="358" y="392"/>
      <point x="317" y="392" type="curve"/>
    </contour>
  </outline>
</glyph>
<glyph name="uni0027" format="1">
  <advance width="227"/>
  <unicode hex="0027"/>
  <outline>
    <contour>
      <point x="95" y="465" type="line"/>
      <point x="95" y="736" type="line"/>
      <point x="135" y="736" type="line"/>
      <point x="135" y="465" type="line"/>
    </contour>
  </outline>
</glyph>
<glyph name="uni0028" format="1">
  <advance width="300"/>
  <unicode hex="0028"/>
  <outline>
    <contour>
      <point x="119" y="189" type="curve"/>
      <point x="119" y="510" type="line"/>
      <point x="119" y="652"/>
      <point x="190" y="676"/>
      <point x="250" y="705" type="curve"/>
      <point x="250" y="682" type="line"/>
      <point x="211" y="659"/>
      <point x="159" y="642"/>
      <point x="159" y="522" type="curve" smooth="yes"/>
      <point x="160" y="241" type="line" smooth="yes"/>
      <point x="160" y="239"/>
      <point x="160" y="190"/>
      <point x="160" y="188" type="curve" smooth="yes"/>
      <point x="160" y="78"/>
      <point x="216" y="40"/>
      <point x="251" y="18" type="curve"/>
      <point x="251" y="-5" type="line"/>
      <point x="142" y="53"/>
      <point x="119" y="99"/>
    </contour>
  </outline>
</glyph>
<glyph name="uni0029" format="1">
  <advance width="330"/>
  <unicode hex="0029"/>
  <outline>
    <contour>
      <point x="101" y="-9" type="curve"/>
      <point x="101" y="14" type="line"/>
      <point x="136" y="36"/>
      <point x="203" y="66"/>
      <point x="201" y="202" type="curve" smooth="yes"/>
      <point x="201" y="204"/>
      <point x="201" y="206"/>
      <point x="201" y="208" type="curve" smooth="yes"/>
      <point x="201" y="521" type="line" smooth="yes"/>
      <point x="201" y="632"/>
      <point x="140" y="663"/>
      <point x="101" y="686" type="curve"/>
      <point x="101" y="709" type="line"/>
      <point x="209" y="669"/>
      <point x="241" y="601"/>
      <point x="241" y="510" type="curve"/>
      <point x="241" y="189" type="line"/>
      <point x="241" y="159"/>
      <point x="243" y="47"/>
    </contour>
  </outline>
</glyph>
<glyph name="uni002A" format="1">
  <advance width="394"/>
  <unicode hex="002A"/>
  <outline>
    <contour>
      <point x="58" y="563" type="line"/>
      <point x="167" y="634" type="line"/>
      <point x="60" y="705" type="line"/>
      <point x="83" y="737" type="line"/>
      <point x="175" y="679" type="line"/>
      <point x="175" y="785" type="line"/>
      <point x="215" y="785" type="line"/>
      <point x="215" y="674" type="line"/>
      <point x="311" y="737" type="line"/>
      <point x="333" y="705" type="line"/>
      <point x="225" y="633" type="line"/>
      <point x="333" y="559" type="line"/>
      <point x="310" y="527" type="line"/>
      <point x="215" y="595" type="line"/>
      <point x="215" y="478" type="line"/>
      <point x="175" y="478" type="line"/>
      <point x="175" y="595" type="line"/>
      <point x="80" y="531" type="line"/>
    </contour>
  </outline>
</glyph>
<glyph name="uni002B" format="1">
  <advance width="475"/>
  <unicode hex="002B"/>
  <outline>
    <contour>
      <point x="50" y="275" type="line"/>
      <point x="50" y="313" type="line"/>
      <point x="216" y="313" type="line"/>
      <point x="216" y="498" type="line"/>
      <point x="256" y="498" type="line"/>
      <point x="256" y="313" type="line"/>
      <point x="425" y="313" type="line"/>
      <point x="425" y="275" type="line"/>
      <point x="256" y="275" type="line"/>
      <point x="256" y="87" type="line"/>
      <point x="216" y="87" type="line"/>
      <point x="216" y="275" type="line"/>
    </contour>
  </outline>
</glyph>
<glyph name="uni002C" format="1">
  <advance width="265"/>
  <unicode hex="002C"/>
  <outline>
    <contour>
      <point x="94" y="-23" type="line"/>
      <point x="131" y="129" type="line"/>
      <point x="170" y="129" type="line"/>
      <point x="133" y="-23" type="line"/>
    </contour>
  </outline>
</glyph>
<glyph name="uni002D" format="1">
  <advance width="416"/>
  <unicode hex="002D"/>
  <outline>
    <contour>
      <point x="50" y="275" type="line"/>
      <point x="50" y="313" type="line"/>
      <point x="366" y="313" type="line"/>
      <point x="366" y="275" type="line"/>
    </contour>
  </outline>
</glyph>
<glyph name="uni002E" format="1">
  <advance width="252"/>
  <unicode hex="002E"/>
  <outline>
    <contour>
      <point x="99" y="4" type="curve" smooth="yes"/>
      <point x="99" y="18"/>
      <point x="111" y="30"/>
      <point x="125" y="30" type="curve" smooth="yes"/>
      <point x="139" y="30"/>
      <point x="151" y="18"/>
      <point x="151" y="4" type="curve" smooth="yes"/>
      <point x="151" y="-10"/>
      <point x="139" y="-22"/>
      <point x="125" y="-22" type="curve" smooth="yes"/>
      <point x="111" y="-22"/>
      <point x="99" y="-10"/>
    </contour>
  </outline>
</glyph>
<glyph name="uni002F" format="1">
  <advance width="401"/>
  <unicode hex="002F"/>
  <outline>
    <contour>
      <point x="93" y="-23" type="line"/>
      <point x="268" y="716" type="line"/>
      <point x="308" y="716" type="line"/>
      <point x="134" y="-23" type="line"/>
    </contour>
  </outline>
</glyph>
<glyph name="uni0030" format="1">
  <advance width="1024"/>
  <unicode hex="0030"/>
  <outline>
    <contour>
      <point x="221" y="353" type="curve" smooth="yes"/>
      <point x="221" y="602"/>
      <point x="315" y="693"/>
      <point x="404" y="698" type="curve"/>
      <point x="404" y="660" type="line"/>
      <point x="353" y="660"/>
      <point x="266" y="583"/>
      <point x="262" y="398" type="curve" smooth="yes"/>
      <point x="261" y="371"/>
      <point x="262" y="360"/>
      <point x="262" y="339" type="curve" smooth="yes"/>
      <point x="262" y="93"/>
      <point x="362" y="39"/>
      <point x="403" y="38" type="curve"/>
      <point x="403" y="0" type="line"/>
      <point x="337" y="3"/>
      <point x="221" y="60"/>
    </contour>
    <contour>
      <point x="464" y="660" type="curve"/>
      <point x="464" y="698" type="line"/>
      <point x="553" y="693"/>
      <point x="647" y="602"/>
      <point x="647" y="353" type="curve" smooth="yes"/>
      <point x="647" y="60"/>
      <point x="531" y="3"/>
      <point x="465" y="0" type="curve"/>
      <point x="465" y="38" type="line"/>
      <point x="520" y="46"/>
      <point x="607" y="90"/>
      <point x="607" y="339" type="curve" smooth="yes"/>
      <point x="607" y="360"/>
      <point x="607" y="371"/>
      <point x="607" y="398" type="curve" smooth="yes"/>
      <point x="607" y="577"/>
      <point x="516" y="659"/>
    </contour>
  </outline>
</glyph>
<glyph name="uni0031" format="1">
  <advance width="266"/>
  <unicode hex="0031"/>
  <outline>
    <contour>
      <point x="75" y="584" type="line"/>
      <point x="75" y="640" type="line"/>
      <point x="151" y="699" type="line"/>
      <point x="191" y="699" type="line"/>
      <point x="191" y="0" type="line"/>
      <point x="151" y="0" type="line"/>
      <point x="151" y="644" type="line"/>
    </contour>
  </outline>
</glyph>
<glyph name="uni0032" format="1">
  <advance width="480"/>
  <unicode hex="0032"/>
  <outline>
    <contour>
      <point x="24" y="520" type="line"/>
      <point x="33" y="604"/>
      <point x="94" y="691"/>
      <point x="200" y="700" type="curve"/>
      <point x="200" y="662" type="line" smooth="yes"/>
      <point x="200" y="662"/>
      <point x="85" y="659"/>
      <point x="61" y="512" type="curve"/>
    </contour>
    <contour>
      <point x="43" y="0" type="line"/>
      <point x="43" y="38" type="line"/>
      <point x="447" y="38" type="line"/>
      <point x="447" y="0" type="line"/>
    </contour>
    <contour>
      <point x="43" y="80" type="line"/>
      <point x="43" y="257"/>
      <point x="251" y="328"/>
      <point x="288" y="346" type="curve" smooth="yes"/>
      <point x="344" y="373"/>
      <point x="413" y="408"/>
      <point x="413" y="494" type="curve" smooth="yes"/>
      <point x="413" y="579"/>
      <point x="381" y="662"/>
      <point x="245" y="662" type="curve"/>
      <point x="245" y="700" type="line"/>
      <point x="403" y="700"/>
      <point x="455" y="599"/>
      <point x="453" y="494" type="curve" smooth="yes"/>
      <point x="451" y="410"/>
      <point x="406" y="364"/>
      <point x="338" y="329" type="curve" smooth="yes"/>
      <point x="264" y="291"/>
      <point x="83" y="231"/>
      <point x="83" y="80" type="curve"/>
    </contour>
  </outline>
</glyph>
<glyph name="uni0033" format="1">
  <advance width="484"/>
  <unicode hex="0033"/>
  <outline>
    <contour>
      <point x="26" y="97" type="curve"/>
      <point x="59" y="117" type="line"/>
      <point x="100" y="50"/>
      <point x="129" y="40"/>
      <point x="195" y="37" type="curve"/>
      <point x="195" y="-1" type="line"/>
      <point x="117" y="-1"/>
      <point x="60" y="30"/>
    </contour>
    <contour>
      <point x="26" y="600" type="line"/>
      <point x="59" y="656"/>
      <point x="117" y="698"/>
      <point x="195" y="698" type="curve"/>
      <point x="195" y="660" type="line"/>
      <point x="159" y="663"/>
      <point x="97" y="642"/>
      <point x="59" y="580" type="curve"/>
    </contour>
    <contour>
      <point x="252" y="660" type="curve"/>
      <point x="252" y="698" type="line"/>
      <point x="386" y="695"/>
      <point x="453" y="582"/>
      <point x="453" y="508" type="curve" smooth="yes"/>
      <point x="453" y="411"/>
      <point x="422" y="366"/>
      <point x="391" y="350" type="curve"/>
      <point x="419" y="331"/>
      <point x="458" y="284"/>
      <point x="458" y="199" type="curve" smooth="yes"/>
      <point x="458" y="75"/>
      <point x="337" y="0"/>
      <point x="257" y="0" type="curve" smooth="yes"/>
      <point x="256" y="0"/>
      <point x="256" y="0"/>
      <point x="255" y="0" type="curve"/>
      <point x="255" y="38" type="line"/>
      <point x="298" y="38"/>
      <point x="417" y="86"/>
      <point x="417" y="201" type="curve" smooth="yes"/>
      <point x="417" y="279"/>
      <point x="384" y="329"/>
      <point x="288" y="329" type="curve"/>
      <point x="288" y="367" type="line"/>
      <point x="388" y="367"/>
      <point x="412" y="419"/>
      <point x="412" y="499" type="curve" smooth="yes"/>
      <point x="412" y="610"/>
      <point x="317" y="653"/>
      <point x="256" y="660" type="curve" smooth="yes"/>
      <point x="255" y="660"/>
      <point x="253" y="660"/>
    </contour>
  </outline>
</glyph>
<glyph name="uni0034" format="1">
  <advance width="483"/>
  <unicode hex="0034"/>
  <outline>
    <contour>
      <point x="26" y="145" type="line"/>
      <point x="26" y="183" type="line"/>
      <point x="317" y="677" type="line"/>
      <point x="317" y="608" type="line"/>
      <point x="69" y="183" type="line"/>
      <point x="317" y="183" type="line"/>
      <point x="317" y="145" type="line"/>
    </contour>
    <contour>
      <point x="362" y="0" type="line"/>
      <point x="362" y="701" type="line"/>
      <point x="402" y="701" type="line"/>
      <point x="402" y="183" type="line"/>
      <point x="457" y="183" type="line"/>
      <point x="457" y="145" type="line"/>
      <point x="402" y="145" type="line"/>
      <point x="402" y="0" type="line"/>
    </contour>
  </outline>
</glyph>
<glyph name="uni0035" format="1">
  <advance width="492"/>
  <unicode hex="0035"/>
  <outline>
    <contour>
      <point x="26" y="354" type="line"/>
      <point x="55" y="700" type="line"/>
      <point x="409" y="700" type="line"/>
      <point x="409" y="662" type="line"/>
      <point x="91" y="661" type="line"/>
      <point x="70" y="398" type="line"/>
      <point x="98" y="420"/>
      <point x="143" y="447"/>
      <point x="208" y="447" type="curve"/>
      <point x="208" y="409" type="line"/>
      <point x="156" y="409"/>
      <point x="107" y="386"/>
      <point x="65" y="330" type="curve"/>
    </contour>
    <contour>
      <point x="28" y="107" type="curve"/>
      <point x="61" y="129" type="line"/>
      <point x="96" y="68"/>
      <point x="134" y="44"/>
      <point x="208" y="38" type="curve"/>
      <point x="208" y="0" type="line"/>
      <point x="124" y="0"/>
      <point x="60" y="46"/>
    </contour>
    <contour>
      <point x="253" y="0" type="curve"/>
      <point x="253" y="38" type="line"/>
      <point x="317" y="38"/>
      <point x="427" y="96"/>
      <point x="427" y="224" type="curve" smooth="yes"/>
      <point x="427" y="366"/>
      <point x="317" y="409"/>
      <point x="253" y="409" type="curve"/>
      <point x="253" y="447" type="line"/>
      <point x="401" y="447"/>
      <point x="466" y="333"/>
      <point x="466" y="223" type="curve" smooth="yes"/>
      <point x="466" y="78"/>
      <point x="358" y="2"/>
    </contour>
  </outline>
</glyph>
<glyph name="uni0036" format="1">
  <advance width="497"/>
  <unicode hex="0036"/>
  <outline>
    <contour>
      <point x="26" y="358" type="curve" smooth="yes"/>
      <point x="25" y="475"/>
      <point x="56" y="679"/>
      <point x="233" y="697" type="curve"/>
      <point x="233" y="659" type="line"/>
      <point x="82" y="635"/>
      <point x="66" y="444"/>
      <point x="66" y="320" type="curve"/>
      <point x="102" y="395"/>
      <point x="172" y="425"/>
      <point x="233" y="425" type="curve"/>
      <point x="233" y="387" type="line"/>
      <point x="133" y="387"/>
      <point x="82" y="289"/>
      <point x="82" y="211" type="curve" smooth="yes"/>
      <point x="82" y="164"/>
      <point x="117" y="37"/>
      <point x="233" y="37" type="curve"/>
      <point x="233" y="-1" type="line"/>
      <point x="58" y="-1"/>
      <point x="27" y="172"/>
    </contour>
    <contour>
      <point x="278" y="-1" type="curve"/>
      <point x="278" y="37" type="line"/>
      <point x="376" y="37"/>
      <point x="431" y="136"/>
      <point x="431" y="211" type="curve" smooth="yes"/>
      <point x="431" y="335"/>
      <point x="349" y="389"/>
      <point x="278" y="389" type="curve"/>
      <point x="278" y="425" type="line"/>
      <point x="402" y="425"/>
      <point x="470" y="330"/>
      <point x="470" y="212" type="curve" smooth="yes"/>
      <point x="470" y="87"/>
      <point x="379" y="0"/>
    </contour>
    <contour>
      <point x="278" y="660" type="curve"/>
      <point x="278" y="698" type="line"/>
      <point x="356" y="698"/>
      <point x="415" y="659"/>
      <point x="450" y="600" type="curve"/>
      <point x="417" y="578" type="line"/>
      <point x="398" y="611"/>
      <point x="355" y="660"/>
    </contour>
  </outline>
</glyph>
<glyph name="uni0037" format="1">
  <advance width="435"/>
  <unicode hex="0037"/>
  <outline>
    <contour>
      <point x="20" y="660" type="line"/>
      <point x="20" y="698" type="line"/>
      <point x="409" y="698" type="line"/>
      <point x="409" y="661" type="line"/>
      <point x="368" y="502" type="line"/>
      <point x="327" y="502" type="line"/>
      <point x="364" y="660" type="line"/>
    </contour>
    <contour>
      <point x="230" y="0" type="line"/>
      <point x="247" y="158"/>
      <point x="277" y="302"/>
      <point x="319" y="457" type="curve"/>
      <point x="358" y="457" type="line"/>
      <point x="319" y="307"/>
      <point x="289" y="154"/>
      <point x="273" y="0" type="curve"/>
    </contour>
  </outline>
</glyph>
<glyph name="uni0038" format="1">
  <advance width="486"/>
  <unicode hex="0038"/>
  <outline>
    <contour>
      <point x="26" y="199" type="curve" smooth="yes"/>
      <point x="26" y="292"/>
      <point x="76" y="330"/>
      <point x="104" y="349" type="curve"/>
      <point x="90" y="352"/>
      <point x="33" y="404"/>
      <point x="33" y="499" type="curve" smooth="yes"/>
      <point x="33" y="615"/>
      <point x="136" y="698"/>
      <point x="221" y="698" type="curve"/>
      <point x="221" y="660" type="line"/>
      <point x="128" y="656"/>
      <point x="72" y="570"/>
      <point x="72" y="499" type="curve" smooth="yes"/>
      <point x="72" y="420"/>
      <point x="114" y="368"/>
      <point x="220" y="368" type="curve"/>
      <point x="220" y="330" type="line"/>
      <point x="155" y="330"/>
      <point x="65" y="311"/>
      <point x="65" y="199" type="curve" smooth="yes"/>
      <point x="65" y="90"/>
      <point x="184" y="41"/>
      <point x="218" y="38" type="curve"/>
      <point x="218" y="0" type="line"/>
      <point x="217" y="0" type="line" smooth="yes"/>
      <point x="164" y="0"/>
      <point x="26" y="53"/>
    </contour>
    <contour>
      <point x="265" y="660" type="curve"/>
      <point x="265" y="698" type="line"/>
      <point x="352" y="698"/>
      <point x="452" y="613"/>
      <point x="452" y="499" type="curve" smooth="yes"/>
      <point x="452" y="399"/>
      <point x="396" y="352"/>
      <point x="382" y="349" type="curve"/>
      <point x="410" y="330"/>
      <point x="460" y="300"/>
      <point x="460" y="196" type="curve" smooth="yes"/>
      <point x="460" y="58"/>
      <point x="328" y="0"/>
      <point x="269" y="0" type="curve" smooth="yes"/>
      <point x="268" y="0" type="line"/>
      <point x="268" y="38" type="line"/>
      <point x="308" y="38"/>
      <point x="421" y="91"/>
      <point x="421" y="196" type="curve" smooth="yes"/>
      <point x="421" y="330"/>
      <point x="311" y="330"/>
      <point x="266" y="330" type="curve"/>
      <point x="266" y="368" type="line"/>
      <point x="381" y="368"/>
      <point x="413" y="414"/>
      <point x="413" y="499" type="curve" smooth="yes"/>
      <point x="413" y="574"/>
      <point x="358" y="655"/>
    </contour>
  </outline>
</glyph>
<glyph name="uni0039" format="1">
  <advance width="504"/>
  <unicode hex="0039"/>
  <outline>
    <contour>
      <point x="26" y="485" type="curve" smooth="yes"/>
      <point x="26" y="610"/>
      <point x="122" y="699"/>
      <point x="223" y="700" type="curve"/>
      <point x="223" y="660" type="line"/>
      <point x="111" y="658"/>
      <point x="64" y="550"/>
      <point x="64" y="485" type="curve" smooth="yes"/>
      <point x="64" y="380"/>
      <point x="124" y="314"/>
      <point x="223" y="314" type="curve"/>
      <point x="223" y="274" type="line"/>
      <point x="94" y="274"/>
      <point x="26" y="359"/>
    </contour>
    <contour>
      <point x="43" y="115" type="curve"/>
      <point x="76" y="136" type="line"/>
      <point x="102" y="83"/>
      <point x="160" y="41"/>
      <point x="223" y="41" type="curve"/>
      <point x="223" y="1" type="line"/>
      <point x="145" y="1"/>
      <point x="76" y="51"/>
    </contour>
    <contour>
      <point x="267" y="2" type="curve"/>
      <point x="267" y="41" type="line"/>
      <point x="330" y="41"/>
      <point x="437" y="103"/>
      <point x="437" y="366" type="curve"/>
      <point x="423" y="348"/>
      <point x="397" y="274"/>
      <point x="267" y="274" type="curve"/>
      <point x="267" y="314" type="line"/>
      <point x="368" y="314"/>
      <point x="421" y="380"/>
      <point x="421" y="490" type="curve" smooth="yes"/>
      <point x="421" y="551"/>
      <point x="375" y="659"/>
      <point x="267" y="660" type="curve"/>
      <point x="267" y="700" type="line"/>
      <point x="442" y="700"/>
      <point x="477" y="529"/>
      <point x="477" y="341" type="curve" smooth="yes"/>
      <point x="477" y="233"/>
      <point x="444" y="0"/>
    </contour>
  </outline>
</glyph>
<glyph name="uni003A" format="1">
  <advance width="250"/>
  <unicode hex="003A"/>
  <outline>
    <contour>
      <point x="98" y="21" type="curve" smooth="yes"/>
      <point x="98" y="35"/>
      <point x="110" y="47"/>
      <point x="124" y="47" type="curve" smooth="yes"/>
      <point x="138" y="47"/>
      <point x="150" y="35"/>
      <point x="150" y="21" type="curve" smooth="yes"/>
      <point x="150" y="7"/>
      <point x="138" y="-5"/>
      <point x="124" y="-5" type="curve" smooth="yes"/>
      <point x="110" y="-5"/>
      <point x="98" y="7"/>
    </contour>
    <contour>
      <point x="99" y="311" type="curve" smooth="yes"/>
      <point x="99" y="325"/>
      <point x="111" y="337"/>
      <point x="125" y="337" type="curve" smooth="yes"/>
      <point x="139" y="337"/>
      <point x="151" y="325"/>
      <point x="151" y="311" type="curve" smooth="yes"/>
      <point x="151" y="297"/>
      <point x="139" y="285"/>
      <point x="125" y="285" type="curve" smooth="yes"/>
      <point x="111" y="285"/>
      <point x="99" y="297"/>
    </contour>
  </outline>
</glyph>
<glyph name="uni003B" format="1">
  <advance width="291"/>
  <unicode hex="003B"/>
  <outline>
    <contour>
      <point x="94" y="-23" type="line"/>
      <point x="131" y="129" type="line"/>
      <point x="170" y="129" type="line"/>
      <point x="133" y="-23" type="line"/>
    </contour>
    <contour>
      <point x="141" y="311" type="curve" smooth="yes"/>
      <point x="141" y="325"/>
      <point x="153" y="337"/>
      <point x="167" y="337" type="curve" smooth="yes"/>
      <point x="181" y="337"/>
      <point x="193" y="325"/>
      <point x="193" y="311" type="curve" smooth="yes"/>
      <point x="193" y="297"/>
      <point x="181" y="285"/>
      <point x="167" y="285" type="curve" smooth="yes"/>
      <point x="153" y="285"/>
      <point x="141" y="297"/>
    </contour>
  </outline>
</glyph>
<glyph name="uni003C" format="1">
  <advance width="427"/>
  <unicode hex="003C"/>
  <outline>
    <contour>
      <point x="43" y="276" type="line"/>
      <point x="43" y="308" type="line"/>
      <point x="397" y="500" type="line"/>
      <point x="397" y="460" type="line"/>
      <point x="89" y="292" type="line"/>
      <point x="397" y="119" type="line"/>
      <point x="397" y="79" type="line"/>
    </contour>
  </outline>
</glyph>
<glyph name="uni003D" format="1">
  <advance width="418"/>
  <unicode hex="003D"/>
  <outline>
    <contour>
      <point x="50" y="218" type="line"/>
      <point x="50" y="258" type="line"/>
      <point x="368" y="258" type="line"/>
      <point x="368" y="218" type="line"/>
    </contour>
    <contour>
      <point x="50" y="325" type="line"/>
      <point x="50" y="365" type="line"/>
      <point x="368" y="365" type="line"/>
      <point x="368" y="325" type="line"/>
    </contour>
  </outline>
</glyph>
<glyph name="uni003E" format="1">
  <advance width="414"/>
  <unicode hex="003E"/>
  <outline>
    <contour>
      <point x="30" y="79" type="line"/>
      <point x="30" y="119" type="line"/>
      <point x="338" y="292" type="line"/>
      <point x="30" y="460" type="line"/>
      <point x="30" y="500" type="line"/>
      <point x="384" y="308" type="line"/>
      <point x="384" y="276" type="line"/>
    </contour>
  </outline>
</glyph>
<glyph name="uni003F" format="1">
  <advance width="460"/>
  <unicode hex="003F"/>
  <outline>
    <contour>
      <point x="30" y="611" type="line"/>
      <point x="60" y="649"/>
      <point x="110" y="703"/>
      <point x="218" y="703" type="curve" smooth="yes"/>
      <point x="346" y="703"/>
      <point x="426" y="620"/>
      <point x="430" y="491" type="curve"/>
      <point x="430" y="293"/>
      <point x="215" y="276"/>
      <point x="215" y="276" type="curve"/>
      <point x="215" y="71" type="line"/>
      <point x="177" y="71" type="line"/>
      <point x="177" y="316" type="line"/>
      <point x="294" y="318"/>
      <point x="392" y="370"/>
      <point x="392" y="491" type="curve" smooth="yes"/>
      <point x="392" y="587"/>
      <point x="327" y="663"/>
      <point x="218" y="663" type="curve" smooth="yes"/>
      <point x="129" y="663"/>
      <point x="78" y="611"/>
      <point x="57" y="583" type="curve"/>
    </contour>
    <contour>
      <point x="171" y="4" type="curve" smooth="yes"/>
      <point x="171" y="18"/>
      <point x="183" y="30"/>
      <point x="197" y="30" type="curve" smooth="yes"/>
      <point x="211" y="30"/>
      <point x="223" y="18"/>
      <point x="223" y="4" type="curve" smooth="yes"/>
      <point x="223" y="-10"/>
      <point x="211" y="-22"/>
      <point x="197" y="-22" type="curve" smooth="yes"/>
      <point x="183" y="-22"/>
      <point x="171" y="-10"/>
    </contour>
  </outline>
</glyph>
<glyph name="uni0040" format="1">
  <advance width="803"/>
  <unicode hex="0040"/>
  <outline>
    <contour>
      <point x="56" y="309" type="curve" smooth="yes"/>
      <point x="56" y="519"/>
      <point x="228" y="678"/>
      <point x="448" y="678" type="curve" smooth="yes"/>
      <point x="584" y="678"/>
      <point x="745" y="590"/>
      <point x="745" y="413" type="curve" smooth="yes"/>
      <point x="745" y="182"/>
      <point x="581" y="161"/>
      <point x="545" y="161" type="curve" smooth="yes"/>
      <point x="509" y="161"/>
      <point x="470" y="199"/>
      <point x="464" y="219" type="curve"/>
      <point x="453" y="202"/>
      <point x="418" y="169"/>
      <point x="369" y="169" type="curve" smooth="yes"/>
      <point x="310" y="169"/>
      <point x="261" y="229"/>
      <point x="261" y="304" type="curve" smooth="yes"/>
      <point x="261" y="425"/>
      <point x="356" y="483"/>
      <point x="420" y="483" type="curve" smooth="yes"/>
      <point x="470" y="483"/>
      <point x="487" y="462"/>
      <point x="499" y="450" type="curve"/>
      <point x="505" y="471" type="line"/>
      <point x="544" y="471" type="line"/>
      <point x="503" y="308" type="line" smooth="yes"/>
      <point x="500" y="297"/>
      <point x="496" y="280"/>
      <point x="493" y="266" type="curve" smooth="yes"/>
      <point x="489" y="249"/>
      <point x="510" y="197"/>
      <point x="551" y="197" type="curve" smooth="yes"/>
      <point x="592" y="197"/>
      <point x="707" y="226"/>
      <point x="707" y="412" type="curve" smooth="yes"/>
      <point x="707" y="554"/>
      <point x="569" y="640"/>
      <point x="448" y="640" type="curve" smooth="yes"/>
      <point x="257" y="640"/>
      <point x="96" y="498"/>
      <point x="96" y="309" type="curve" smooth="yes"/>
      <point x="96" y="119"/>
      <point x="237" y="-14"/>
      <point x="421" y="-14" type="curve" smooth="yes"/>
      <point x="524" y="-14"/>
      <point x="603" y="19"/>
      <point x="683" y="75" type="curve"/>
      <point x="701" y="41" type="line"/>
      <point x="630" y="-11"/>
      <point x="536" y="-52"/>
      <point x="421" y="-52" type="curve" smooth="yes"/>
      <point x="193" y="-52"/>
      <point x="56" y="112"/>
    </contour>
  </outline>
</glyph>
<glyph name="uni0041" format="1">
  <advance width="516"/>
  <unicode hex="0041"/>
  <outline>
    <contour>
      <point x="74" y="0" type="line"/>
      <point x="211" y="599" type="line"/>
      <point x="228" y="599" type="line"/>
      <point x="238" y="554" type="line"/>
      <point x="114" y="0" type="line"/>
    </contour>
    <contour>
      <point x="188" y="135" type="line"/>
      <point x="196" y="173" type="line"/>
      <point x="366" y="173" type="line"/>
      <point x="251" y="699" type="line"/>
      <point x="291" y="699" type="line"/>
      <point x="443" y="0" type="line"/>
      <point x="403" y="0" type="line"/>
      <point x="375" y="135" type="line"/>
    </contour>
  </outline>
</glyph>
<glyph name="uni0042" format="1">
  <advance width="484"/>
  <unicode hex="0042"/>
  <outline>
    <contour>
      <point x="26" y="0" type="line"/>
      <point x="26" y="700" type="line"/>
      <point x="66" y="700" type="line"/>
      <point x="66" y="0" type="line"/>
    </contour>
    <contour>
      <point x="111" y="-1" type="curve"/>
      <point x="111" y="37" type="line"/>
      <point x="135" y="37"/>
      <point x="207" y="37"/>
      <point x="207" y="37" type="curve" smooth="yes"/>
      <point x="370" y="37"/>
      <point x="418" y="132"/>
      <point x="418" y="205" type="curve" smooth="yes"/>
      <point x="418" y="277"/>
      <point x="381" y="333"/>
      <point x="272" y="333" type="curve" smooth="yes"/>
      <point x="272" y="333"/>
      <point x="131" y="333"/>
      <point x="111" y="333" type="curve"/>
      <point x="111" y="371" type="line"/>
      <point x="126" y="371"/>
      <point x="272" y="371"/>
      <point x="272" y="371" type="curve" smooth="yes"/>
      <point x="383" y="371"/>
      <point x="414" y="426"/>
      <point x="414" y="497" type="curve" smooth="yes"/>
      <point x="414" y="567"/>
      <point x="365" y="662"/>
      <point x="240" y="662" type="curve" smooth="yes"/>
      <point x="240" y="662"/>
      <point x="134" y="662"/>
      <point x="111" y="662" type="curve"/>
      <point x="111" y="700" type="line"/>
      <point x="119" y="700"/>
      <point x="242" y="700"/>
      <point x="242" y="700" type="curve" smooth="yes"/>
      <point x="394" y="700"/>
      <point x="454" y="588"/>
      <point x="454" y="497" type="curve" smooth="yes"/>
      <point x="454" y="427"/>
      <point x="420" y="378"/>
      <point x="385" y="352" type="curve"/>
      <point x="423" y="322"/>
      <point x="458" y="289"/>
      <point x="458" y="205" type="curve" smooth="yes"/>
      <point x="458" y="85"/>
      <point x="367" y="-1"/>
      <point x="246" y="-1" type="curve" smooth="yes"/>
      <point x="246" y="-1"/>
      <point x="121" y="-1"/>
    </contour>
  </outline>
</glyph>
<glyph name="uni0043" format="1">
  <advance width="494"/>
  <unicode hex="0043"/>
  <outline>
    <contour>
      <point x="32" y="181" type="curve"/>
      <point x="32" y="518" type="line"/>
      <point x="32" y="578"/>
      <point x="86" y="706"/>
      <point x="233" y="705" type="curve"/>
      <point x="233" y="667" type="line"/>
      <point x="119" y="667"/>
      <point x="72" y="568"/>
      <point x="72" y="518" type="curve"/>
      <point x="72" y="181" type="line"/>
      <point x="72" y="131"/>
      <point x="120" y="33"/>
      <point x="233" y="33" type="curve"/>
      <point x="233" y="-5" type="line"/>
      <point x="85" y="-5"/>
      <point x="32" y="121"/>
    </contour>
    <contour>
      <point x="278" y="-5" type="curve"/>
      <point x="278" y="33" type="line"/>
      <point x="278" y="33"/>
      <point x="394" y="35"/>
      <point x="425" y="139" type="curve" smooth="yes"/>
      <point x="431" y="159"/>
      <point x="434" y="185"/>
      <point x="434" y="190" type="curve"/>
      <point x="468" y="182" type="line"/>
      <point x="468" y="76"/>
      <point x="375" y="-5"/>
    </contour>
    <contour>
      <point x="278" y="667" type="curve"/>
      <point x="278" y="705" type="line"/>
      <point x="375" y="706"/>
      <point x="468" y="612"/>
      <point x="468" y="516" type="curve"/>
      <point x="432" y="507" type="line"/>
      <point x="432" y="520"/>
      <point x="431" y="534"/>
      <point x="425" y="550" type="curve" smooth="yes"/>
      <point x="384" y="666"/>
      <point x="278" y="667"/>
    </contour>
  </outline>
</glyph>
<glyph name="uni0044" format="1">
  <advance width="452"/>
  <unicode hex="0044"/>
  <outline>
    <contour>
      <point x="32" y="0" type="line"/>
      <point x="32" y="700" type="line"/>
      <point x="72" y="700" type="line"/>
      <point x="72" y="0" type="line"/>
    </contour>
    <contour>
      <point x="117" y="0" type="curve"/>
      <point x="117" y="38" type="line"/>
      <point x="260" y="38"/>
      <point x="384" y="41"/>
      <point x="384" y="197" type="curve" smooth="yes"/>
      <point x="384" y="503" type="line"/>
      <point x="384" y="669"/>
      <point x="253" y="662"/>
      <point x="117" y="662" type="curve"/>
      <point x="117" y="700" type="line"/>
      <point x="271" y="700"/>
      <point x="424" y="706"/>
      <point x="424" y="503" type="curve"/>
      <point x="424" y="197" type="line"/>
      <point x="424" y="0"/>
      <point x="277" y="0"/>
    </contour>
  </outline>
</glyph>
<glyph name="uni0045" format="1">
  <advance width="422"/>
  <unicode hex="0045"/>
  <outline>
    <contour>
      <point x="32" y="0" type="line"/>
      <point x="32" y="700" type="line"/>
      <point x="396" y="700" type="line"/>
      <point x="396" y="662" type="line"/>
      <point x="72" y="662" type="line"/>
      <point x="72" y="368" type="line"/>
      <point x="302" y="368" type="line"/>
      <point x="302" y="330" type="line"/>
      <point x="72" y="330" type="line"/>
      <point x="72" y="38" type="line"/>
      <point x="396" y="38" type="line"/>
      <point x="396" y="0" type="line"/>
    </contour>
  </outline>
</glyph>
<glyph name="uni0046" format="1">
  <advance width="418"/>
  <unicode hex="0046"/>
  <outline>
    <contour>
      <point x="28" y="1" type="line"/>
      <point x="28" y="700" type="line"/>
      <point x="392" y="700" type="line"/>
      <point x="392" y="662" type="line"/>
      <point x="68" y="662" type="line"/>
      <point x="68" y="368" type="line"/>
      <point x="298" y="368" type="line"/>
      <point x="298" y="330" type="line"/>
      <point x="68" y="330" type="line"/>
      <point x="68" y="1" type="line"/>
    </contour>
  </outline>
</glyph>
<glyph name="uni0047" format="1">
  <advance width="493"/>
  <unicode hex="0047"/>
  <outline>
    <contour>
      <point x="26" y="192" type="curve"/>
      <point x="26" y="524" type="line"/>
      <point x="26" y="586"/>
      <point x="90" y="706"/>
      <point x="226" y="705" type="curve"/>
      <point x="226" y="667" type="line"/>
      <point x="143" y="667"/>
      <point x="66" y="596"/>
      <point x="66" y="508" type="curve"/>
      <point x="66" y="192" type="line" smooth="yes"/>
      <point x="66" y="77"/>
      <point x="186" y="33"/>
      <point x="226" y="33" type="curve"/>
      <point x="226" y="-5" type="line"/>
      <point x="161" y="-5"/>
      <point x="26" y="48"/>
    </contour>
    <contour>
      <point x="271" y="-5" type="curve"/>
      <point x="271" y="33" type="line"/>
      <point x="324" y="33"/>
      <point x="421" y="102"/>
      <point x="421" y="190" type="curve" smooth="yes"/>
      <point x="421" y="315" type="line"/>
      <point x="271" y="315" type="line"/>
      <point x="271" y="353" type="line"/>
      <point x="461" y="353" type="line"/>
      <point x="461" y="176" type="line" smooth="yes"/>
      <point x="461" y="95"/>
      <point x="358" y="-5"/>
    </contour>
    <contour>
      <point x="271" y="667" type="curve"/>
      <point x="271" y="705" type="line"/>
      <point x="369" y="706"/>
      <point x="461" y="612"/>
      <point x="461" y="516" type="curve"/>
      <point x="422" y="502" type="line"/>
      <point x="422" y="624"/>
      <point x="312" y="667"/>
    </contour>
  </outline>
</glyph>
<glyph name="uni0048" format="1">
  <advance width="460"/>
  <unicode hex="0048"/>
  <outline>
    <contour>
      <point x="33" y="0" type="line"/>
      <point x="33" y="700" type="line"/>
      <point x="73" y="700" type="line"/>
      <point x="73" y="371" type="line"/>
      <point x="207" y="371" type="line"/>
      <point x="207" y="333" type="line"/>
      <point x="73" y="333" type="line"/>
      <point x="73" y="0" type="line"/>
    </contour>
    <contour>
      <point x="253" y="333" type="line"/>
      <point x="253" y="371" type="line"/>
      <point x="387" y="371" type="line"/>
      <point x="387" y="700" type="line"/>
      <point x="427" y="700" type="line"/>
      <point x="427" y="0" type="line"/>
      <point x="387" y="0" type="line"/>
      <point x="387" y="333" type="line"/>
    </contour>
  </outline>
</glyph>
<glyph name="uni004A" format="1">
  <advance width="495"/>
  <unicode hex="004A"/>
  <outline>
    <contour>
      <point x="26" y="193" type="curve"/>
      <point x="26" y="242" type="line"/>
      <point x="66" y="242" type="line"/>
      <point x="66" y="200" type="line" smooth="yes"/>
      <point x="66" y="86"/>
      <point x="166" y="33"/>
      <point x="217" y="33" type="curve"/>
      <point x="217" y="-5" type="line"/>
      <point x="157" y="-5"/>
      <point x="26" y="54"/>
    </contour>
    <contour>
      <point x="263" y="-5" type="curve"/>
      <point x="263" y="33" type="line"/>
      <point x="306" y="33"/>
      <point x="423" y="84"/>
      <point x="423" y="193" type="curve" smooth="yes"/>
      <point x="423" y="700" type="line"/>
      <point x="463" y="700" type="line"/>
      <point x="463" y="193" type="line"/>
      <point x="463" y="49"/>
      <point x="323" y="-5"/>
    </contour>
  </outline>
</glyph>
<glyph name="uni004C" format="1">
  <advance width="428"/>
  <unicode hex="004C"/>
  <outline>
    <contour>
      <point x="26" y="0" type="line"/>
      <point x="26" y="700" type="line"/>
      <point x="66" y="700" type="line"/>
      <point x="66" y="38" type="line"/>
      <point x="402" y="38" type="line"/>
      <point x="402" y="0" type="line"/>
    </contour>
  </outline>
</glyph>
<glyph name="uni004D" format="1">
  <advance width="676"/>
  <unicode hex="004D"/>
  <outline>
    <contour>
      <point x="32" y="0" type="line"/>
      <point x="32" y="549" type="line"/>
      <point x="41" y="549" type="line"/>
      <point x="72" y="472" type="line"/>
      <point x="72" y="0" type="line"/>
    </contour>
    <contour>
      <point x="32" y="678" type="line"/>
      <point x="32" y="700" type="line"/>
      <point x="69" y="700" type="line"/>
      <point x="333" y="59" type="line"/>
      <point x="549" y="547" type="line"/>
      <point x="559" y="547" type="line"/>
      <point x="559" y="469" type="line"/>
      <point x="352" y="0" type="line"/>
      <point x="314" y="0" type="line"/>
    </contour>
    <contour>
      <point x="604" y="0" type="line"/>
      <point x="604" y="700" type="line"/>
      <point x="644" y="700" type="line"/>
      <point x="644" y="0" type="line"/>
    </contour>
  </outline>
</glyph>
<glyph name="uni004E" format="1">
  <advance width="509"/>
  <unicode hex="004E"/>
  <outline>
    <contour>
      <point x="32" y="0" type="line"/>
      <point x="32" y="596" type="line"/>
      <point x="40" y="596" type="line"/>
      <point x="72" y="544" type="line"/>
      <point x="72" y="0" type="line"/>
    </contour>
    <contour>
      <point x="32" y="676" type="line"/>
      <point x="32" y="700" type="line"/>
      <point x="71" y="700" type="line"/>
      <point x="477" y="53" type="line"/>
      <point x="477" y="0" type="line"/>
      <point x="456" y="0" type="line"/>
    </contour>
    <contour>
      <point x="437" y="189" type="line"/>
      <point x="437" y="700" type="line"/>
      <point x="477" y="700" type="line"/>
      <point x="477" y="136" type="line"/>
      <point x="469" y="136" type="line"/>
    </contour>
  </outline>
</glyph>
<glyph name="uni004F" format="1">
  <advance width="508"/>
  <unicode hex="004F"/>
  <outline>
    <contour>
      <point x="30" y="195" type="curve" smooth="yes"/>
      <point x="30" y="524" type="line" smooth="yes"/>
      <point x="30" y="584"/>
      <point x="95" y="705"/>
      <point x="227" y="705" type="curve"/>
      <point x="227" y="666" type="line"/>
      <point x="129" y="666"/>
      <point x="70" y="566"/>
      <point x="70" y="508" type="curve" smooth="yes"/>
      <point x="70" y="195" type="line" smooth="yes"/>
      <point x="70" y="93"/>
      <point x="172" y="34"/>
      <point x="226" y="34" type="curve"/>
      <point x="226" y="-5" type="line"/>
      <point x="166" y="-5"/>
      <point x="30" y="51"/>
    </contour>
    <contour>
      <point x="281" y="-5" type="curve"/>
      <point x="281" y="34" type="line"/>
      <point x="337" y="34"/>
      <point x="438" y="90"/>
      <point x="438" y="195" type="curve" smooth="yes"/>
      <point x="438" y="508" type="line" smooth="yes"/>
      <point x="438" y="571"/>
      <point x="380" y="666"/>
      <point x="281" y="666" type="curve"/>
      <point x="281" y="705" type="line"/>
      <point x="412" y="705"/>
      <point x="478" y="583"/>
      <point x="478" y="524" type="curve" smooth="yes"/>
      <point x="478" y="195" type="line" smooth="yes"/>
      <point x="478" y="51"/>
      <point x="341" y="-5"/>
    </contour>
  </outline>
</glyph>
<glyph name="uni0050" format="1">
  <advance width="474"/>
  <unicode hex="0050"/>
  <outline>
    <contour>
      <point x="26" y="0" type="line"/>
      <point x="26" y="700" type="line"/>
      <point x="66" y="700" type="line"/>
      <point x="66" y="0" type="line"/>
    </contour>
    <contour>
      <point x="111" y="318" type="curve"/>
      <point x="111" y="356" type="line"/>
      <point x="221" y="356" type="line" smooth="yes"/>
      <point x="338" y="356"/>
      <point x="407" y="390"/>
      <point x="407" y="508" type="curve" smooth="yes"/>
      <point x="407" y="632"/>
      <point x="344" y="662"/>
      <point x="220" y="662" type="curve" smooth="yes"/>
      <point x="111" y="662" type="line"/>
      <point x="111" y="700" type="line"/>
      <point x="317" y="700"/>
      <point x="448" y="706"/>
      <point x="448" y="512" type="curve" smooth="yes"/>
      <point x="448" y="306"/>
      <point x="306" y="318"/>
    </contour>
  </outline>
</glyph>
<glyph name="uni0051" format="1">
  <advance width="500"/>
  <unicode hex="0051"/>
  <outline>
    <contour>
      <point x="26" y="195" type="curve" smooth="yes"/>
      <point x="26" y="524" type="line" smooth="yes"/>
      <point x="26" y="584"/>
      <point x="91" y="706"/>
      <point x="227" y="705" type="curve"/>
      <point x="227" y="667" type="line"/>
      <point x="125" y="667"/>
      <point x="66" y="574"/>
      <point x="66" y="508" type="curve" smooth="yes"/>
      <point x="66" y="195" type="line" smooth="yes"/>
      <point x="66" y="64"/>
      <point x="203" y="33"/>
      <point x="227" y="33" type="curve"/>
      <point x="227" y="-5" type="line"/>
      <point x="160" y="-5"/>
      <point x="26" y="51"/>
    </contour>
    <contour>
      <point x="273" y="-5" type="line"/>
      <point x="273" y="33" type="line"/>
      <point x="293" y="33"/>
      <point x="433" y="66"/>
      <point x="433" y="195" type="curve" smooth="yes"/>
      <point x="433" y="508" type="line" smooth="yes"/>
      <point x="433" y="574"/>
      <point x="375" y="667"/>
      <point x="273" y="667" type="curve"/>
      <point x="273" y="705" type="line"/>
      <point x="408" y="706"/>
      <point x="474" y="583"/>
      <point x="474" y="524" type="curve" smooth="yes"/>
      <point x="474" y="195" type="line" smooth="yes"/>
      <point x="474" y="77"/>
      <point x="384" y="27"/>
      <point x="322" y="2" type="curve"/>
      <point x="380" y="-84" type="line"/>
      <point x="348" y="-107" type="line"/>
    </contour>
  </outline>
</glyph>
<glyph name="uni0052" format="1">
  <advance width="495"/>
  <unicode hex="0052"/>
  <outline>
    <contour>
      <point x="32" y="0" type="line"/>
      <point x="32" y="700" type="line"/>
      <point x="72" y="700" type="line"/>
      <point x="72" y="0" type="line"/>
    </contour>
    <contour>
      <point x="117" y="330" type="curve"/>
      <point x="117" y="368" type="line"/>
      <point x="215" y="368" type="line" smooth="yes"/>
      <point x="333" y="368"/>
      <point x="412" y="411"/>
      <point x="412" y="496" type="curve" smooth="yes"/>
      <point x="412" y="658"/>
      <point x="279" y="661"/>
      <point x="146" y="661" type="curve" smooth="yes"/>
      <point x="117" y="661" type="line"/>
      <point x="117" y="700" type="line"/>
      <point x="236" y="700"/>
      <point x="453" y="718"/>
      <point x="453" y="496" type="curve" smooth="yes"/>
      <point x="453" y="412"/>
      <point x="407" y="375"/>
      <point x="350" y="352" type="curve"/>
      <point x="392" y="340"/>
      <point x="446" y="297"/>
      <point x="452" y="217" type="curve" smooth="yes"/>
      <point x="469" y="0" type="line"/>
      <point x="429" y="0" type="line"/>
      <point x="414" y="178" type="line" smooth="yes"/>
      <point x="403" y="305"/>
      <point x="373" y="330"/>
    </contour>
  </outline>
</glyph>
<glyph name="uni0053" format="1">
  <advance width="497"/>
  <unicode hex="0053"/>
  <outline>
    <contour>
      <point x="33" y="158" type="curve"/>
      <point x="70" y="171" type="line"/>
      <point x="96" y="42"/>
      <point x="221" y="35"/>
      <point x="221" y="35" type="curve"/>
      <point x="221" y="-3" type="line"/>
      <point x="106" y="-3"/>
      <point x="34" y="103"/>
    </contour>
    <contour>
      <point x="41" y="514" type="curve" smooth="yes"/>
      <point x="41" y="649"/>
      <point x="167" y="700"/>
      <point x="221" y="700" type="curve"/>
      <point x="221" y="662" type="line"/>
      <point x="189" y="662"/>
      <point x="81" y="622"/>
      <point x="81" y="508" type="curve" smooth="yes"/>
      <point x="81" y="387"/>
      <point x="266" y="387"/>
      <point x="346" y="365" type="curve" smooth="yes"/>
      <point x="415" y="346"/>
      <point x="474" y="311"/>
      <point x="474" y="203" type="curve" smooth="yes"/>
      <point x="474" y="99"/>
      <point x="381" y="-3"/>
      <point x="266" y="-3" type="curve"/>
      <point x="266" y="35" type="line"/>
      <point x="319" y="35"/>
      <point x="434" y="100"/>
      <point x="434" y="209" type="curve" smooth="yes"/>
      <point x="434" y="348"/>
      <point x="227" y="336"/>
      <point x="164" y="360" type="curve" smooth="yes"/>
      <point x="90" y="388"/>
      <point x="41" y="421"/>
    </contour>
    <contour>
      <point x="266" y="662" type="curve"/>
      <point x="266" y="700" type="line"/>
      <point x="376" y="700"/>
      <point x="438" y="595"/>
      <point x="446" y="553" type="curve"/>
      <point x="408" y="541" type="line"/>
      <point x="376" y="658"/>
      <point x="266" y="662"/>
    </contour>
  </outline>
</glyph>
<glyph name="uni0054" format="1">
  <advance width="485"/>
  <unicode hex="0054"/>
  <outline>
    <contour>
      <point x="26" y="662" type="line"/>
      <point x="26" y="700" type="line"/>
      <point x="459" y="700" type="line"/>
      <point x="459" y="662" type="line"/>
      <point x="262" y="662" type="line"/>
      <point x="262" y="0" type="line"/>
      <point x="222" y="0" type="line"/>
      <point x="222" y="662" type="line"/>
    </contour>
  </outline>
</glyph>
<glyph name="uni0055" format="1">
  <advance width="512"/>
  <unicode hex="0055"/>
  <outline>
    <contour>
      <point x="32" y="193" type="curve" smooth="yes"/>
      <point x="32" y="700" type="line"/>
      <point x="72" y="700" type="line"/>
      <point x="72" y="193" type="line"/>
      <point x="72" y="83"/>
      <point x="192" y="33"/>
      <point x="233" y="33" type="curve"/>
      <point x="233" y="-5" type="line"/>
      <point x="173" y="-5"/>
      <point x="32" y="49"/>
    </contour>
    <contour>
      <point x="279" y="-5" type="curve"/>
      <point x="279" y="33" type="line"/>
      <point x="322" y="33"/>
      <point x="439" y="78"/>
      <point x="439" y="193" type="curve"/>
      <point x="439" y="700" type="line"/>
      <point x="479" y="700" type="line"/>
      <point x="479" y="193" type="line" smooth="yes"/>
      <point x="479" y="48"/>
      <point x="340" y="-5"/>
    </contour>
  </outline>
</glyph>
<glyph name="uni0056" format="1">
  <advance width="508"/>
  <unicode hex="0056"/>
  <outline>
    <contour>
      <point x="26" y="700" type="line"/>
      <point x="65" y="700" type="line"/>
      <point x="259" y="34" type="line"/>
      <point x="246" y="0" type="line"/>
      <point x="229" y="0" type="line"/>
    </contour>
    <contour>
      <point x="259" y="165" type="line"/>
      <point x="443" y="700" type="line"/>
      <point x="482" y="700" type="line"/>
      <point x="442" y="569"/>
      <point x="325" y="255"/>
      <point x="283" y="115" type="curve"/>
      <point x="273" y="115" type="line"/>
    </contour>
  </outline>
</glyph>
<glyph name="uni0057" format="1">
  <advance width="725"/>
  <unicode hex="0057"/>
  <outline>
    <contour>
      <point x="58" y="700" type="line"/>
      <point x="97" y="700" type="line"/>
      <point x="289" y="38" type="line"/>
      <point x="276" y="0" type="line"/>
      <point x="261" y="0" type="line"/>
    </contour>
    <contour>
      <point x="271" y="700" type="line"/>
      <point x="310" y="700" type="line"/>
      <point x="502" y="38" type="line"/>
      <point x="489" y="0" type="line"/>
      <point x="474" y="0" type="line"/>
      <point x="383" y="315" type="line"/>
      <point x="318" y="129" type="line"/>
      <point x="308" y="129" type="line"/>
      <point x="293" y="180" type="line"/>
      <point x="366" y="373" type="line"/>
    </contour>
    <contour>
      <point x="507" y="181" type="line"/>
      <point x="660" y="700" type="line"/>
      <point x="699" y="700" type="line"/>
      <point x="532" y="130" type="line"/>
      <point x="522" y="130" type="line"/>
    </contour>
  </outline>
</glyph>
<glyph name="uni0058" format="1">
  <advance width="463"/>
  <unicode hex="0058"/>
  <outline>
    <contour>
      <point x="25" y="0" type="line"/>
      <point x="64" y="0" type="line"/>
      <point x="231" y="325" type="line"/>
      <point x="398" y="0" type="line"/>
      <point x="437" y="0" type="line"/>
      <point x="250" y="362" type="line"/>
      <point x="425" y="700" type="line"/>
      <point x="386" y="700" type="line"/>
      <point x="231" y="398" type="line"/>
      <point x="76" y="700" type="line"/>
      <point x="37" y="700" type="line"/>
      <point x="212" y="362" type="line"/>
    </contour>
  </outline>
</glyph>
<glyph name="uni0059" format="1">
  <advance width="479"/>
  <unicode hex="0059"/>
  <outline>
    <contour>
      <point x="26" y="700" type="line"/>
      <point x="67" y="700" type="line"/>
      <point x="250" y="253" type="line"/>
      <point x="250" y="0" type="line"/>
      <point x="210" y="0" type="line"/>
      <point x="210" y="252" type="line"/>
    </contour>
    <contour>
      <point x="253" y="357" type="line"/>
      <point x="412" y="700" type="line"/>
      <point x="453" y="700" type="line"/>
      <point x="276" y="311" type="line"/>
      <point x="272" y="311" type="line"/>
    </contour>
  </outline>
</glyph>
<glyph name="uni005A" format="1">
  <advance width="418"/>
  <unicode hex="005A"/>
  <outline>
    <contour>
      <point x="26" y="0" type="line"/>
      <point x="26" y="35" type="line"/>
      <point x="349" y="662" type="line"/>
      <point x="26" y="662" type="line"/>
      <point x="26" y="700" type="line"/>
      <point x="392" y="700" type="line"/>
      <point x="392" y="665" type="line"/>
      <point x="69" y="38" type="line"/>
      <point x="393" y="38" type="line"/>
      <point x="392" y="0" type="line"/>
    </contour>
  </outline>
</glyph>
<glyph name="uni005B" format="1">
  <advance width="258"/>
  <unicode hex="005B"/>
  <outline>
    <contour>
      <point x="95" y="-36" type="line"/>
      <point x="95" y="739" type="line"/>
      <point x="175" y="739" type="line"/>
      <point x="175" y="701" type="line"/>
      <point x="136" y="701" type="line"/>
      <point x="133" y="2" type="line"/>
      <point x="175" y="2" type="line"/>
      <point x="175" y="-36" type="line"/>
    </contour>
  </outline>
</glyph>
<glyph name="uni005C" format="1">
  <advance width="402"/>
  <unicode hex="005C"/>
  <outline>
    <contour>
      <point x="135" y="716" type="line"/>
      <point x="176" y="716" type="line"/>
      <point x="351" y="-23" type="line"/>
      <point x="309" y="-23" type="line"/>
    </contour>
  </outline>
</glyph>
<glyph name="uni005D" format="1">
  <advance width="258"/>
  <unicode hex="005D"/>
  <outline>
    <contour>
      <point x="83" y="2" type="line"/>
      <point x="83" y="-36" type="line"/>
      <point x="163" y="-36" type="line"/>
      <point x="163" y="739" type="line"/>
      <point x="83" y="739" type="line"/>
      <point x="83" y="701" type="line"/>
      <point x="122" y="701" type="line"/>
      <point x="125" y="2" type="line"/>
    </contour>
  </outline>
</glyph>
<glyph name="uni005E" format="1">
  <advance width="374"/>
  <unicode hex="005E"/>
  <outline>
    <contour>
      <point x="57" y="460" type="line"/>
      <point x="206" y="756" type="line"/>
      <point x="234" y="756" type="line"/>
      <point x="383" y="460" type="line"/>
      <point x="342" y="460" type="line"/>
      <point x="219" y="703" type="line"/>
      <point x="98" y="460" type="line"/>
    </contour>
  </outline>
</glyph>
<glyph name="uni005F" format="1">
  <advance width="510"/>
  <unicode hex="005F"/>
  <outline>
    <contour>
      <point x="30" y="-167" type="line"/>
      <point x="480" y="-167" type="line"/>
      <point x="480" y="-205" type="line"/>
      <point x="30" y="-205" type="line"/>
    </contour>
  </outline>
</glyph>
<glyph name="uni0060" format="1">
  <advance width="263"/>
  <unicode hex="0060"/>
  <outline>
    <contour>
      <point x="136" y="757" type="line"/>
      <point x="176" y="757" type="line"/>
      <point x="213" y="605" type="line"/>
      <point x="184" y="605" type="line"/>
    </contour>
  </outline>
</glyph>
<glyph name="uni0061" format="1">
  <advance width="435"/>
  <unicode hex="0061"/>
  <outline>
    <contour>
      <point x="26" y="121" type="curve" smooth="yes"/>
      <point x="26" y="167" type="line" smooth="yes"/>
      <point x="26" y="200"/>
      <point x="33" y="233"/>
      <point x="75" y="257" type="curve" smooth="yes"/>
      <point x="129" y="288"/>
      <point x="344" y="316"/>
      <point x="344" y="363" type="curve" smooth="yes"/>
      <point x="344" y="441"/>
      <point x="276" y="483"/>
      <point x="227" y="483" type="curve"/>
      <point x="227" y="519" type="line"/>
      <point x="334" y="519"/>
      <point x="384" y="432"/>
      <point x="384" y="361" type="curve" smooth="yes"/>
      <point x="384" y="74" type="line" smooth="yes"/>
      <point x="384" y="69"/>
      <point x="386" y="40"/>
      <point x="407" y="40" type="curve" smooth="yes"/>
      <point x="410" y="40" type="line"/>
      <point x="410" y="1" type="line"/>
      <point x="407" y="1" type="line" smooth="yes"/>
      <point x="370" y="1"/>
      <point x="356" y="20"/>
      <point x="344" y="39" type="curve"/>
      <point x="319" y="14"/>
      <point x="267" y="1"/>
      <point x="227" y="1" type="curve"/>
      <point x="227" y="39" type="line"/>
      <point x="279" y="39"/>
      <point x="344" y="56"/>
      <point x="344" y="149" type="curve" smooth="yes"/>
      <point x="344" y="298" type="line"/>
      <point x="306" y="283"/>
      <point x="114" y="246"/>
      <point x="78" y="210" type="curve" smooth="yes"/>
      <point x="66" y="198"/>
      <point x="66" y="153"/>
      <point x="66" y="142" type="curve" smooth="yes"/>
      <point x="66" y="66"/>
      <point x="125" y="39"/>
      <point x="182" y="39" type="curve"/>
      <point x="182" y="1" type="line"/>
      <point x="85" y="1"/>
      <point x="26" y="64"/>
    </contour>
    <contour>
      <point x="33" y="389" type="line"/>
      <point x="32" y="463"/>
      <point x="109" y="519"/>
      <point x="182" y="519" type="curve"/>
      <point x="182" y="481" type="line"/>
      <point x="127" y="481"/>
      <point x="70" y="438"/>
      <point x="70" y="375" type="curve"/>
    </contour>
  </outline>
</glyph>
<glyph name="uni0062" format="1">
  <advance width="414"/>
  <unicode hex="0062"/>
  <outline>
    <contour>
      <point x="30" y="0" type="line"/>
      <point x="30" y="699" type="line"/>
      <point x="70" y="699" type="line"/>
      <point x="70" y="0" type="line"/>
    </contour>
    <contour>
      <point x="115" y="0" type="line"/>
      <point x="115" y="38" type="line"/>
      <point x="233" y="38" type="line" smooth="yes"/>
      <point x="281" y="38"/>
      <point x="348" y="86"/>
      <point x="348" y="143" type="curve"/>
      <point x="348" y="373" type="line"/>
      <point x="348" y="426"/>
      <point x="288" y="478"/>
      <point x="233" y="478" type="curve" smooth="yes"/>
      <point x="115" y="478" type="line"/>
      <point x="115" y="516" type="line"/>
      <point x="234" y="516" type="line" smooth="yes"/>
      <point x="316" y="516"/>
      <point x="388" y="446"/>
      <point x="388" y="377" type="curve"/>
      <point x="388" y="141" type="line" smooth="yes"/>
      <point x="388" y="92"/>
      <point x="337" y="0"/>
      <point x="231" y="0" type="curve" smooth="yes"/>
    </contour>
  </outline>
</glyph>
<glyph name="uni0063" format="1">
  <advance width="418"/>
  <unicode hex="0063"/>
  <outline>
    <contour>
      <point x="30" y="141" type="curve" smooth="yes"/>
      <point x="30" y="166"/>
      <point x="30" y="281"/>
      <point x="30" y="372" type="curve" smooth="yes"/>
      <point x="30" y="431"/>
      <point x="83" y="516"/>
      <point x="190" y="516" type="curve"/>
      <point x="190" y="478" type="line"/>
      <point x="119" y="478"/>
      <point x="71" y="414"/>
      <point x="71" y="369" type="curve" smooth="yes"/>
      <point x="71" y="141" type="line" smooth="yes"/>
      <point x="71" y="100"/>
      <point x="129" y="38"/>
      <point x="199" y="38" type="curve"/>
      <point x="199" y="0" type="line"/>
      <point x="78" y="0"/>
      <point x="30" y="94"/>
    </contour>
    <contour>
      <point x="234" y="477" type="curve"/>
      <point x="234" y="516" type="line"/>
      <point x="315" y="516"/>
      <point x="381" y="451"/>
      <point x="381" y="372" type="curve"/>
      <point x="342" y="358" type="line"/>
      <point x="342" y="440"/>
      <point x="281" y="477"/>
    </contour>
    <contour>
      <point x="243" y="-1" type="curve"/>
      <point x="243" y="37" type="line"/>
      <point x="303" y="37"/>
      <point x="353" y="91"/>
      <point x="353" y="159" type="curve"/>
      <point x="392" y="144" type="line"/>
      <point x="392" y="65"/>
      <point x="323" y="-1"/>
    </contour>
  </outline>
</glyph>
<glyph name="uni0064" format="1">
  <advance width="414"/>
  <unicode hex="0064"/>
  <outline>
    <contour>
      <point x="26" y="141" type="line" smooth="yes"/>
      <point x="26" y="92"/>
      <point x="77" y="0"/>
      <point x="183" y="0" type="curve" smooth="yes"/>
      <point x="299" y="0" type="line"/>
      <point x="299" y="38" type="line"/>
      <point x="181" y="38" type="line" smooth="yes"/>
      <point x="133" y="38"/>
      <point x="66" y="86"/>
      <point x="66" y="143" type="curve"/>
      <point x="66" y="373" type="line"/>
      <point x="66" y="426"/>
      <point x="126" y="478"/>
      <point x="181" y="478" type="curve" smooth="yes"/>
      <point x="299" y="478" type="line"/>
      <point x="299" y="516" type="line"/>
      <point x="180" y="516" type="line" smooth="yes"/>
      <point x="98" y="516"/>
      <point x="26" y="446"/>
      <point x="26" y="377" type="curve"/>
    </contour>
    <contour>
      <point x="344" y="0" type="line"/>
      <point x="384" y="0" type="line"/>
      <point x="384" y="699" type="line"/>
      <point x="344" y="699" type="line"/>
    </contour>
  </outline>
</glyph>
<glyph name="uni0065" format="1">
  <advance width="424"/>
  <unicode hex="0065"/>
  <outline>
    <contour>
      <point x="26" y="141" type="curve" smooth="yes"/>
      <point x="26" y="377" type="line"/>
      <point x="27" y="425"/>
      <point x="82" y="516"/>
      <point x="189" y="516" type="curve"/>
      <point x="189" y="478" type="line"/>
      <point x="117" y="478"/>
      <point x="66" y="410"/>
      <point x="66" y="369" type="curve" smooth="yes"/>
      <point x="66" y="285" type="line"/>
      <point x="357" y="285" type="line"/>
      <point x="357" y="369" type="line" smooth="yes"/>
      <point x="357" y="428"/>
      <point x="295" y="480"/>
      <point x="234" y="480" type="curve"/>
      <point x="234" y="516" type="line"/>
      <point x="310" y="516"/>
      <point x="397" y="453"/>
      <point x="397" y="378" type="curve" smooth="yes"/>
      <point x="397" y="247" type="line"/>
      <point x="66" y="247" type="line"/>
      <point x="66" y="141" type="line" smooth="yes"/>
      <point x="66" y="105"/>
      <point x="123" y="38"/>
      <point x="190" y="38" type="curve"/>
      <point x="190" y="0" type="line"/>
      <point x="83" y="0"/>
      <point x="26" y="93"/>
    </contour>
    <contour>
      <point x="234" y="0" type="curve"/>
      <point x="234" y="41" type="line"/>
      <point x="305" y="41"/>
      <point x="350" y="98"/>
      <point x="359" y="134" type="curve"/>
      <point x="398" y="120" type="line"/>
      <point x="379" y="56"/>
      <point x="322" y="0"/>
    </contour>
  </outline>
</glyph>
<glyph name="uni0066" format="1">
  <advance width="314"/>
  <unicode hex="0066"/>
  <outline>
    <contour>
      <point x="66" y="439" type="line"/>
      <point x="66" y="477" type="line"/>
      <point x="129" y="477" type="line"/>
      <point x="129" y="552" type="line" smooth="yes"/>
      <point x="129" y="597"/>
      <point x="142" y="696"/>
      <point x="248" y="696" type="curve" smooth="yes"/>
      <point x="259" y="696" type="line"/>
      <point x="250" y="658" type="line"/>
      <point x="180" y="658"/>
      <point x="169" y="601"/>
      <point x="169" y="552" type="curve" smooth="yes"/>
      <point x="169" y="476" type="line"/>
      <point x="232" y="477" type="line"/>
      <point x="232" y="439" type="line"/>
      <point x="169" y="439" type="line"/>
      <point x="169" y="0" type="line"/>
      <point x="129" y="0" type="line"/>
      <point x="129" y="439" type="line"/>
    </contour>
  </outline>
</glyph>
<glyph name="uni0067" format="1">
  <advance width="415"/>
  <unicode hex="0067"/>
  <outline>
    <contour>
      <point x="26" y="-181" type="line"/>
      <point x="37" y="-143" type="line"/>
      <point x="217" y="-143" type="line"/>
      <point x="300" y="-140"/>
      <point x="349" y="-82"/>
      <point x="349" y="-40" type="curve" smooth="yes"/>
      <point x="349" y="54" type="line"/>
      <point x="339" y="39"/>
      <point x="297" y="0"/>
      <point x="234" y="-1" type="curve"/>
      <point x="234" y="34" type="line"/>
      <point x="286" y="34"/>
      <point x="349" y="88"/>
      <point x="349" y="139" type="curve" smooth="yes"/>
      <point x="349" y="374" type="line" smooth="yes"/>
      <point x="349" y="443"/>
      <point x="275" y="478"/>
      <point x="237" y="478" type="curve" smooth="yes"/>
      <point x="234" y="478" type="line"/>
      <point x="234" y="516" type="line"/>
      <point x="286" y="516"/>
      <point x="336" y="484"/>
      <point x="349" y="465" type="curve"/>
      <point x="349" y="516" type="line"/>
      <point x="389" y="516" type="line"/>
      <point x="389" y="-40" type="line" smooth="yes"/>
      <point x="389" y="-83"/>
      <point x="339" y="-180"/>
      <point x="236" y="-181" type="curve"/>
    </contour>
    <contour>
      <point x="35" y="139" type="curve" smooth="yes"/>
      <point x="35" y="378" type="line"/>
      <point x="36" y="424"/>
      <point x="83" y="516"/>
      <point x="189" y="516" type="curve"/>
      <point x="189" y="478" type="line"/>
      <point x="125" y="478"/>
      <point x="75" y="415"/>
      <point x="75" y="375" type="curve" smooth="yes"/>
      <point x="75" y="140" type="line" smooth="yes"/>
      <point x="75" y="102"/>
      <point x="122" y="37"/>
      <point x="189" y="37" type="curve"/>
      <point x="189" y="-1" type="line"/>
      <point x="80" y="0"/>
      <point x="35" y="94"/>
    </contour>
  </outline>
</glyph>
<glyph name="uni0068" format="1">
  <advance width="421"/>
  <unicode hex="0068"/>
  <outline>
    <contour>
      <point x="30" y="1" type="line"/>
      <point x="30" y="698" type="line"/>
      <point x="69" y="698" type="line"/>
      <point x="69" y="454" type="line"/>
      <point x="86" y="478"/>
      <point x="126" y="511"/>
      <point x="193" y="511" type="curve"/>
      <point x="193" y="473" type="line"/>
      <point x="135" y="473"/>
      <point x="70" y="420"/>
      <point x="70" y="365" type="curve" smooth="yes"/>
      <point x="70" y="1" type="line"/>
    </contour>
    <contour>
      <point x="238" y="473" type="curve"/>
      <point x="238" y="511" type="line"/>
      <point x="337" y="511"/>
      <point x="395" y="443"/>
      <point x="395" y="374" type="curve" smooth="yes"/>
      <point x="395" y="1" type="line"/>
      <point x="355" y="1" type="line"/>
      <point x="355" y="365" type="line" smooth="yes"/>
      <point x="355" y="418"/>
      <point x="318" y="473"/>
    </contour>
  </outline>
</glyph>
<glyph name="uni0069" format="1">
  <advance width="199"/>
  <unicode hex="0069"/>
  <outline>
    <contour>
      <point x="72" y="583" type="curve" smooth="yes"/>
      <point x="72" y="598"/>
      <point x="85" y="610"/>
      <point x="100" y="610" type="curve" smooth="yes"/>
      <point x="115" y="610"/>
      <point x="127" y="598"/>
      <point x="127" y="583" type="curve" smooth="yes"/>
      <point x="127" y="568"/>
      <point x="115" y="556"/>
      <point x="100" y="556" type="curve" smooth="yes"/>
      <point x="85" y="556"/>
      <point x="72" y="568"/>
    </contour>
    <contour>
      <point x="80" y="0" type="line"/>
      <point x="80" y="516" type="line"/>
      <point x="120" y="516" type="line"/>
      <point x="120" y="0" type="line"/>
    </contour>
  </outline>
</glyph>
<glyph name="uni006A" format="1">
  <advance width="194"/>
  <unicode hex="006A"/>
  <outline>
    <contour>
      <point x="-49" y="-181" type="line"/>
      <point x="-40" y="-143" type="line"/>
      <point x="-29" y="-143" type="line"/>
      <point x="26" y="-140"/>
      <point x="78" y="-85"/>
      <point x="78" y="-35" type="curve" smooth="yes"/>
      <point x="78" y="516" type="line"/>
      <point x="118" y="516" type="line"/>
      <point x="118" y="-35" type="line" smooth="yes"/>
      <point x="118" y="-82"/>
      <point x="70" y="-181"/>
      <point x="-32" y="-181" type="curve" smooth="yes"/>
    </contour>
    <contour>
      <point x="72" y="583" type="curve" smooth="yes"/>
      <point x="72" y="598"/>
      <point x="85" y="610"/>
      <point x="100" y="610" type="curve" smooth="yes"/>
      <point x="115" y="610"/>
      <point x="127" y="598"/>
      <point x="127" y="583" type="curve" smooth="yes"/>
      <point x="127" y="568"/>
      <point x="115" y="556"/>
      <point x="100" y="556" type="curve" smooth="yes"/>
      <point x="85" y="556"/>
      <point x="72" y="568"/>
    </contour>
  </outline>
</glyph>
<glyph name="uni006B" format="1">
  <advance width="452"/>
  <unicode hex="006B"/>
  <outline>
    <contour>
      <point x="30" y="0" type="line"/>
      <point x="30" y="698" type="line"/>
      <point x="70" y="698" type="line"/>
      <point x="70" y="0" type="line"/>
    </contour>
    <contour>
      <point x="92" y="257" type="line"/>
      <point x="368" y="514" type="line"/>
      <point x="428" y="514" type="line"/>
      <point x="152" y="257" type="line"/>
      <point x="428" y="0" type="line"/>
      <point x="368" y="0" type="line"/>
    </contour>
  </outline>
</glyph>
<glyph name="uni006C" format="1">
  <advance width="192"/>
  <unicode hex="006C"/>
  <outline>
    <contour>
      <point x="76" y="0" type="line"/>
      <point x="76" y="698" type="line"/>
      <point x="116" y="698" type="line"/>
      <point x="116" y="0" type="line"/>
    </contour>
  </outline>
</glyph>
<glyph name="uni006D" format="1">
  <advance width="684"/>
  <unicode hex="006D"/>
  <outline>
    <contour>
      <point x="30" y="0" type="line"/>
      <point x="30" y="377" type="line" smooth="yes"/>
      <point x="30" y="429"/>
      <point x="60" y="519"/>
      <point x="173" y="519" type="curve"/>
      <point x="173" y="481" type="line"/>
      <point x="109" y="481"/>
      <point x="70" y="431"/>
      <point x="70" y="372" type="curve" smooth="yes"/>
      <point x="70" y="0" type="line"/>
    </contour>
    <contour>
      <point x="217" y="481" type="line"/>
      <point x="281" y="481"/>
      <point x="322" y="431"/>
      <point x="322" y="372" type="curve" smooth="yes"/>
      <point x="322" y="0" type="line"/>
      <point x="362" y="0" type="line"/>
      <point x="362" y="372" type="line"/>
      <point x="362" y="431"/>
      <point x="402" y="481"/>
      <point x="466" y="481" type="curve"/>
      <point x="466" y="519" type="line"/>
      <point x="394" y="519"/>
      <point x="366" y="490"/>
      <point x="342" y="450" type="curve"/>
      <point x="318" y="490"/>
      <point x="289" y="519"/>
      <point x="217" y="519" type="curve"/>
    </contour>
    <contour>
      <point x="510" y="481" type="curve"/>
      <point x="510" y="519" type="line"/>
      <point x="620" y="519"/>
      <point x="654" y="426"/>
      <point x="654" y="377" type="curve" smooth="yes"/>
      <point x="654" y="0" type="line"/>
      <point x="614" y="0" type="line"/>
      <point x="614" y="372" type="line" smooth="yes"/>
      <point x="614" y="433"/>
      <point x="573" y="481"/>
    </contour>
  </outline>
</glyph>
<glyph name="uni006E" format="1">
  <advance width="434"/>
  <unicode hex="006E"/>
  <outline>
    <contour>
      <point x="30" y="0" type="line"/>
      <point x="30" y="377" type="line" smooth="yes"/>
      <point x="30" y="428"/>
      <point x="86" y="519"/>
      <point x="196" y="519" type="curve"/>
      <point x="196" y="479" type="line"/>
      <point x="133" y="479"/>
      <point x="70" y="426"/>
      <point x="70" y="372" type="curve" smooth="yes"/>
      <point x="70" y="0" type="line"/>
    </contour>
    <contour>
      <point x="238" y="479" type="curve"/>
      <point x="238" y="519" type="line"/>
      <point x="348" y="519"/>
      <point x="404" y="425"/>
      <point x="404" y="377" type="curve" smooth="yes"/>
      <point x="404" y="0" type="line"/>
      <point x="364" y="0" type="line"/>
      <point x="364" y="372" type="line" smooth="yes"/>
      <point x="364" y="405"/>
      <point x="320" y="479"/>
    </contour>
  </outline>
</glyph>
<glyph name="uni006F" format="1">
  <advance width="420"/>
  <unicode hex="006F"/>
  <outline>
    <contour>
      <point x="28" y="141" type="curve" smooth="yes"/>
      <point x="28" y="376" type="line" smooth="yes"/>
      <point x="28" y="425"/>
      <point x="82" y="516"/>
      <point x="192" y="516" type="curve"/>
      <point x="192" y="478" type="line"/>
      <point x="112" y="478"/>
      <point x="68" y="410"/>
      <point x="68" y="363" type="curve" smooth="yes"/>
      <point x="68" y="154" type="line" smooth="yes"/>
      <point x="68" y="111"/>
      <point x="119" y="37"/>
      <point x="192" y="37" type="curve"/>
      <point x="192" y="-1" type="line"/>
      <point x="80" y="-1"/>
      <point x="28" y="93"/>
    </contour>
    <contour>
      <point x="233" y="-1" type="curve"/>
      <point x="233" y="37" type="line"/>
      <point x="308" y="37"/>
      <point x="352" y="108"/>
      <point x="352" y="152" type="curve" smooth="yes"/>
      <point x="352" y="363" type="line" smooth="yes"/>
      <point x="352" y="408"/>
      <point x="308" y="478"/>
      <point x="233" y="478" type="curve"/>
      <point x="233" y="516" type="line"/>
      <point x="341" y="516"/>
      <point x="392" y="425"/>
      <point x="392" y="376" type="curve" smooth="yes"/>
      <point x="392" y="141" type="line" smooth="yes"/>
      <point x="392" y="92"/>
      <point x="341" y="-1"/>
    </contour>
  </outline>
</glyph>
<glyph name="uni0070" format="1">
  <advance width="422"/>
  <unicode hex="0070"/>
  <outline>
    <contour>
      <point x="30" y="-182" type="line"/>
      <point x="30" y="516" type="line"/>
      <point x="70" y="516" type="line"/>
      <point x="70" y="-182" type="line"/>
    </contour>
    <contour>
      <point x="115" y="478" type="line"/>
      <point x="115" y="516" type="line"/>
      <point x="223" y="516" type="line" smooth="yes"/>
      <point x="341" y="516"/>
      <point x="396" y="427"/>
      <point x="396" y="375" type="curve" smooth="yes"/>
      <point x="396" y="139" type="line"/>
      <point x="396" y="86"/>
      <point x="344" y="0"/>
      <point x="231" y="0" type="curve" smooth="yes"/>
      <point x="122" y="0" type="line"/>
      <point x="122" y="38" type="line"/>
      <point x="233" y="38" type="line" smooth="yes"/>
      <point x="311" y="38"/>
      <point x="356" y="92"/>
      <point x="356" y="143" type="curve" smooth="yes"/>
      <point x="356" y="372" type="line"/>
      <point x="356" y="413"/>
      <point x="309" y="478"/>
      <point x="223" y="478" type="curve" smooth="yes"/>
    </contour>
  </outline>
</glyph>
<glyph name="uni0071" format="1">
  <advance width="422"/>
  <unicode hex="0071"/>
  <outline>
    <contour>
      <point x="27" y="139" type="line"/>
      <point x="27" y="86"/>
      <point x="79" y="0"/>
      <point x="192" y="0" type="curve" smooth="yes"/>
      <point x="293" y="0" type="line"/>
      <point x="293" y="38" type="line"/>
      <point x="190" y="38" type="line" smooth="yes"/>
      <point x="112" y="38"/>
      <point x="67" y="92"/>
      <point x="67" y="143" type="curve" smooth="yes"/>
      <point x="67" y="372" type="line"/>
      <point x="67" y="413"/>
      <point x="106" y="478"/>
      <point x="192" y="478" type="curve" smooth="yes"/>
      <point x="300" y="478" type="line"/>
      <point x="300" y="516" type="line"/>
      <point x="192" y="516" type="line" smooth="yes"/>
      <point x="74" y="516"/>
      <point x="27" y="427"/>
      <point x="27" y="375" type="curve" smooth="yes"/>
    </contour>
    <contour>
      <point x="345" y="-182" type="line"/>
      <point x="385" y="-182" type="line"/>
      <point x="385" y="516" type="line"/>
      <point x="345" y="516" type="line"/>
    </contour>
  </outline>
</glyph>
<glyph name="uni0072" format="1">
  <advance width="316"/>
  <unicode hex="0072"/>
  <outline>
    <contour>
      <point x="78" y="0" type="line"/>
      <point x="78" y="516" type="line"/>
      <point x="118" y="516" type="line"/>
      <point x="118" y="431" type="line"/>
      <point x="131" y="464"/>
      <point x="177" y="515"/>
      <point x="248" y="515" type="curve" smooth="yes"/>
      <point x="249" y="515" type="line"/>
      <point x="239" y="478" type="line"/>
      <point x="179" y="478"/>
      <point x="118" y="390"/>
      <point x="118" y="308" type="curve" smooth="yes"/>
      <point x="118" y="0" type="line"/>
    </contour>
  </outline>
</glyph>
<glyph name="uni0073" format="1">
  <advance width="418"/>
  <unicode hex="0073"/>
  <outline>
    <contour>
      <point x="22" y="136" type="curve"/>
      <point x="61" y="143" type="line"/>
      <point x="61" y="79"/>
      <point x="132" y="33"/>
      <point x="184" y="33" type="curve"/>
      <point x="184" y="-5" type="line"/>
      <point x="87" y="-5"/>
      <point x="22" y="71"/>
    </contour>
    <contour>
      <point x="26" y="365" type="curve" smooth="yes"/>
      <point x="26" y="472"/>
      <point x="119" y="517"/>
      <point x="182" y="517" type="curve"/>
      <point x="182" y="479" type="line"/>
      <point x="136" y="479"/>
      <point x="66" y="435"/>
      <point x="66" y="365" type="curve" smooth="yes"/>
      <point x="66" y="305"/>
      <point x="146" y="301"/>
      <point x="285" y="266" type="curve" smooth="yes"/>
      <point x="317" y="258"/>
      <point x="397" y="234"/>
      <point x="397" y="153" type="curve" smooth="yes"/>
      <point x="397" y="57"/>
      <point x="320" y="-5"/>
      <point x="225" y="-5" type="curve"/>
      <point x="225" y="32" type="line"/>
      <point x="279" y="32"/>
      <point x="357" y="73"/>
      <point x="357" y="153" type="curve" smooth="yes"/>
      <point x="357" y="223"/>
      <point x="238" y="235"/>
      <point x="125" y="262" type="curve" smooth="yes"/>
      <point x="94" y="269"/>
      <point x="26" y="289"/>
    </contour>
    <contour>
      <point x="224" y="478" type="curve"/>
      <point x="224" y="517" type="line"/>
      <point x="321" y="517"/>
      <point x="388" y="441"/>
      <point x="388" y="374" type="curve"/>
      <point x="349" y="368" type="line"/>
      <point x="349" y="442"/>
      <point x="265" y="478"/>
    </contour>
  </outline>
</glyph>
<glyph name="uni0074" format="1">
  <advance width="324"/>
  <unicode hex="0074"/>
  <outline>
    <contour>
      <point x="66" y="438" type="line"/>
      <point x="66" y="477" type="line"/>
      <point x="129" y="477" type="line"/>
      <point x="129" y="700" type="line"/>
      <point x="169" y="700" type="line"/>
      <point x="169" y="477" type="line"/>
      <point x="232" y="477" type="line"/>
      <point x="232" y="438" type="line"/>
      <point x="169" y="438" type="line"/>
      <point x="169" y="159" type="line" smooth="yes"/>
      <point x="169" y="83"/>
      <point x="194" y="38"/>
      <point x="288" y="38" type="curve" smooth="yes"/>
      <point x="289" y="38" type="line"/>
      <point x="298" y="0" type="line"/>
      <point x="283" y="0" type="line" smooth="yes"/>
      <point x="161" y="1"/>
      <point x="129" y="66"/>
      <point x="129" y="168" type="curve" smooth="yes"/>
      <point x="129" y="438" type="line"/>
    </contour>
  </outline>
</glyph>
<glyph name="uni0075" format="1">
  <advance width="434"/>
  <unicode hex="0075"/>
  <outline>
    <contour>
      <point x="30" y="137" type="curve" smooth="yes"/>
      <point x="30" y="514" type="line"/>
      <point x="70" y="514" type="line"/>
      <point x="70" y="142" type="line" smooth="yes"/>
      <point x="70" y="96"/>
      <point x="126" y="35"/>
      <point x="196" y="35" type="curve"/>
      <point x="196" y="-5" type="line"/>
      <point x="83" y="-5"/>
      <point x="30" y="86"/>
    </contour>
    <contour>
      <point x="238" y="-5" type="curve"/>
      <point x="238" y="35" type="line"/>
      <point x="310" y="35"/>
      <point x="364" y="94"/>
      <point x="364" y="142" type="curve" smooth="yes"/>
      <point x="364" y="514" type="line"/>
      <point x="404" y="514" type="line"/>
      <point x="404" y="137" type="line" smooth="yes"/>
      <point x="404" y="89"/>
      <point x="350" y="-5"/>
    </contour>
  </outline>
</glyph>
<glyph name="uni0076" format="1">
  <advance width="400"/>
  <unicode hex="0076"/>
  <outline>
    <contour>
      <point x="16" y="515" type="line"/>
      <point x="61" y="515" type="line"/>
      <point x="227" y="31" type="line"/>
      <point x="216" y="0" type="line"/>
      <point x="196" y="0" type="line"/>
    </contour>
    <contour>
      <point x="221" y="140" type="line"/>
      <point x="355" y="515" type="line"/>
      <point x="400" y="515" type="line"/>
      <point x="249" y="92" type="line"/>
      <point x="237" y="92" type="line"/>
    </contour>
  </outline>
</glyph>
<glyph name="uni0077" format="1">
  <advance width="577"/>
  <unicode hex="0077"/>
  <outline>
    <contour>
      <point x="8" y="516" type="line"/>
      <point x="185" y="0" type="line"/>
      <point x="195" y="0" type="line"/>
      <point x="209" y="46" type="line"/>
      <point x="47" y="516" type="line"/>
    </contour>
    <contour>
      <point x="192" y="516" type="line"/>
      <point x="263" y="309" type="line"/>
      <point x="207" y="153" type="line"/>
      <point x="222" y="108" type="line"/>
      <point x="230" y="108" type="line"/>
      <point x="283" y="251" type="line"/>
      <point x="369" y="0" type="line"/>
      <point x="379" y="0" type="line"/>
      <point x="393" y="46" type="line"/>
      <point x="231" y="516" type="line"/>
    </contour>
    <contour>
      <point x="263" y="309" type="move"/>
    </contour>
    <contour>
      <point x="283" y="251" type="move"/>
    </contour>
    <contour>
      <point x="395" y="152" type="line"/>
      <point x="410" y="108" type="line"/>
      <point x="418" y="108" type="line"/>
      <point x="569" y="516" type="line"/>
      <point x="530" y="516" type="line"/>
    </contour>
  </outline>
</glyph>
<glyph name="uni0078" format="1">
  <advance width="399"/>
  <unicode hex="0078"/>
  <outline>
    <contour>
      <point x="18" y="0" type="line"/>
      <point x="176" y="262" type="line"/>
      <point x="23" y="516" type="line"/>
      <point x="62" y="516" type="line"/>
      <point x="200" y="293" type="line"/>
      <point x="337" y="515" type="line"/>
      <point x="377" y="515" type="line"/>
      <point x="225" y="262" type="line"/>
      <point x="381" y="0" type="line"/>
      <point x="342" y="0" type="line"/>
      <point x="200" y="232" type="line"/>
      <point x="57" y="0" type="line"/>
    </contour>
  </outline>
</glyph>
<glyph name="uni0079" format="1">
  <advance width="383"/>
  <unicode hex="0079"/>
  <outline>
    <contour>
      <point x="0" y="515" type="line"/>
      <point x="39" y="515" type="line"/>
      <point x="208" y="111" type="line"/>
      <point x="111" y="-182" type="line"/>
      <point x="72" y="-182" type="line"/>
      <point x="169" y="111" type="line"/>
    </contour>
    <contour>
      <point x="209" y="197" type="line"/>
      <point x="343" y="515" type="line"/>
      <point x="382" y="515" type="line"/>
      <point x="231" y="156" type="line"/>
      <point x="226" y="156" type="line"/>
    </contour>
  </outline>
</glyph>
<glyph name="uni007A" format="1">
  <advance width="348"/>
  <unicode hex="007A"/>
  <outline>
    <contour>
      <point x="26" y="0" type="line"/>
      <point x="27" y="37" type="line"/>
      <point x="280" y="476" type="line"/>
      <point x="26" y="476" type="line"/>
      <point x="26" y="514" type="line"/>
      <point x="322" y="514" type="line"/>
      <point x="322" y="482" type="line"/>
      <point x="68" y="38" type="line"/>
      <point x="322" y="38" type="line"/>
      <point x="322" y="0" type="line"/>
    </contour>
  </outline>
</glyph>
<glyph name="uni007B" format="1">
  <advance width="407"/>
  <unicode hex="007B"/>
  <outline>
    <contour>
      <point x="50" y="348" type="curve"/>
      <point x="86" y="363"/>
      <point x="111" y="370"/>
      <point x="112" y="408" type="curve" smooth="yes"/>
      <point x="112" y="557" type="line" smooth="yes"/>
      <point x="112" y="706"/>
      <point x="151" y="735"/>
      <point x="234" y="735" type="curve"/>
      <point x="234" y="701" type="line"/>
      <point x="162" y="701"/>
      <point x="152" y="684"/>
      <point x="152" y="469" type="curve"/>
      <point x="152" y="383" type="line" smooth="yes"/>
      <point x="152" y="366"/>
      <point x="146" y="354"/>
      <point x="122" y="348" type="curve"/>
      <point x="147" y="340"/>
      <point x="152" y="325"/>
      <point x="152" y="304" type="curve" smooth="yes"/>
      <point x="152" y="207" type="line"/>
      <point x="152" y="10"/>
      <point x="189" y="-4"/>
      <point x="234" y="-4" type="curve"/>
      <point x="234" y="-38" type="line"/>
      <point x="153" y="-40"/>
      <point x="112" y="5"/>
      <point x="112" y="138" type="curve" smooth="yes"/>
      <point x="112" y="290" type="line" smooth="yes"/>
      <point x="112" y="322"/>
      <point x="86" y="329"/>
    </contour>
  </outline>
</glyph>
<glyph name="uni007C" format="1">
  <advance width="205"/>
  <unicode hex="007C"/>
  <outline>
    <contour>
      <point x="85" y="-134" type="line"/>
      <point x="85" y="754" type="line"/>
      <point x="120" y="754" type="line"/>
      <point x="120" y="-134" type="line"/>
    </contour>
  </outline>
</glyph>
<glyph name="uni007D" format="1">
  <advance width="407"/>
  <unicode hex="007D"/>
  <outline>
    <contour>
      <point x="173" y="-4" type="curve"/>
      <point x="173" y="-38" type="line"/>
      <point x="254" y="-40"/>
      <point x="295" y="5"/>
      <point x="295" y="138" type="curve" smooth="yes"/>
      <point x="295" y="290" type="line" smooth="yes"/>
      <point x="295" y="322"/>
      <point x="321" y="329"/>
      <point x="357" y="348" type="curve"/>
      <point x="321" y="363"/>
      <point x="296" y="370"/>
      <point x="295" y="408" type="curve" smooth="yes"/>
      <point x="295" y="557" type="line" smooth="yes"/>
      <point x="295" y="706"/>
      <point x="256" y="735"/>
      <point x="173" y="735" type="curve"/>
      <point x="173" y="701" type="line"/>
      <point x="245" y="701"/>
      <point x="255" y="684"/>
      <point x="255" y="469" type="curve"/>
      <point x="255" y="383" type="line" smooth="yes"/>
      <point x="255" y="366"/>
      <point x="261" y="354"/>
      <point x="285" y="348" type="curve"/>
      <point x="260" y="340"/>
      <point x="255" y="325"/>
      <point x="255" y="304" type="curve" smooth="yes"/>
      <point x="255" y="207" type="line"/>
      <point x="255" y="10"/>
      <point x="218" y="-4"/>
    </contour>
  </outline>
</glyph>
<glyph name="uni007E" format="1">
  <advance width="568"/>
  <unicode hex="007E"/>
  <outline>
    <contour>
      <point x="50" y="320" type="curve"/>
      <point x="50" y="358" type="line"/>
      <point x="95" y="384"/>
      <point x="132" y="393"/>
      <point x="163" y="393" type="curve" smooth="yes"/>
      <point x="250" y="393"/>
      <point x="299" y="320"/>
      <point x="387" y="320" type="curve" smooth="yes"/>
      <point x="422" y="320"/>
      <point x="464" y="332"/>
      <point x="518" y="365" type="curve"/>
      <point x="518" y="329" type="line"/>
      <point x="462" y="295"/>
      <point x="418" y="283"/>
      <point x="381" y="283" type="curve" smooth="yes"/>
      <point x="289" y="283"/>
      <point x="239" y="356"/>
      <point x="157" y="356" type="curve" smooth="yes"/>
      <point x="127" y="356"/>
      <point x="92" y="347"/>
    </contour>
  </outline>
</glyph>
<glyph name="uni00A2" format="1">
  <advance width="494"/>
  <unicode hex="00A2"/>
  <outline>
    <contour>
      <point x="32" y="181" type="curve" smooth="yes"/>
      <point x="32" y="518" type="line" smooth="yes"/>
      <point x="32" y="574"/>
      <point x="79" y="690"/>
      <point x="206" y="704" type="curve"/>
      <point x="206" y="749" type="line"/>
      <point x="233" y="749" type="line"/>
      <point x="233" y="667" type="line"/>
      <point x="119" y="667"/>
      <point x="72" y="568"/>
      <point x="72" y="518" type="curve" smooth="yes"/>
      <point x="72" y="181" type="line" smooth="yes"/>
      <point x="72" y="131"/>
      <point x="120" y="33"/>
      <point x="233" y="33" type="curve"/>
      <point x="233" y="-48" type="line"/>
      <point x="206" y="-48" type="line"/>
      <point x="206" y="-4" type="line"/>
      <point x="78" y="10"/>
      <point x="32" y="125"/>
    </contour>
    <contour>
      <point x="278" y="33" type="line"/>
      <point x="278" y="33"/>
      <point x="394" y="35"/>
      <point x="425" y="139" type="curve" smooth="yes"/>
      <point x="431" y="159"/>
      <point x="434" y="185"/>
      <point x="434" y="190" type="curve"/>
      <point x="468" y="182" type="line"/>
      <point x="468" y="86"/>
      <point x="392" y="10"/>
      <point x="305" y="-3" type="curve"/>
      <point x="305" y="-48" type="line"/>
      <point x="278" y="-48" type="line"/>
    </contour>
    <contour>
      <point x="278" y="667" type="curve"/>
      <point x="278" y="749" type="line"/>
      <point x="305" y="749" type="line"/>
      <point x="305" y="703" type="line"/>
      <point x="392" y="689"/>
      <point x="468" y="603"/>
      <point x="468" y="516" type="curve"/>
      <point x="432" y="507" type="line"/>
      <point x="432" y="520"/>
      <point x="431" y="534"/>
      <point x="425" y="550" type="curve" smooth="yes"/>
      <point x="384" y="666"/>
      <point x="278" y="667"/>
    </contour>
  </outline>
</glyph>
<glyph name="uni00A3" format="1">
  <advance width="520"/>
  <unicode hex="00A3"/>
  <outline>
    <contour>
      <point x="90" y="322" type="line"/>
      <point x="90" y="360" type="line"/>
      <point x="152" y="360" type="line"/>
      <point x="152" y="553" type="line" smooth="yes"/>
      <point x="152" y="629"/>
      <point x="198" y="704"/>
      <point x="291" y="704" type="curve" smooth="yes"/>
      <point x="293" y="704" type="line" smooth="yes"/>
      <point x="316" y="704"/>
      <point x="334" y="700"/>
      <point x="351" y="693" type="curve"/>
      <point x="385" y="680"/>
      <point x="407" y="655"/>
      <point x="420" y="629" type="curve"/>
      <point x="385" y="612" type="line"/>
      <point x="367" y="639"/>
      <point x="340" y="664"/>
      <point x="297" y="664" type="curve" smooth="yes"/>
      <point x="238" y="664"/>
      <point x="192" y="622"/>
      <point x="192" y="556" type="curve" smooth="yes"/>
      <point x="192" y="362" type="line"/>
      <point x="338" y="362" type="line"/>
      <point x="338" y="324" type="line"/>
      <point x="192" y="324" type="line"/>
      <point x="192" y="38" type="line"/>
      <point x="422" y="38" type="line"/>
      <point x="422" y="0" type="line"/>
      <point x="152" y="0" type="line"/>
      <point x="152" y="322" type="line"/>
    </contour>
  </outline>
</glyph>
<glyph name="uni00A4" format="1">
  <advance width="656"/>
  <unicode hex="00A4"/>
  <outline>
    <contour>
      <point x="74" y="164" type="line"/>
      <point x="153" y="236" type="line"/>
      <point x="147" y="250"/>
      <point x="145" y="263"/>
      <point x="145" y="274" type="curve" smooth="yes"/>
      <point x="145" y="456" type="line" smooth="yes"/>
      <point x="145" y="467"/>
      <point x="148" y="481"/>
      <point x="154" y="495" type="curve"/>
      <point x="74" y="567" type="line"/>
      <point x="99" y="596" type="line"/>
      <point x="173" y="530" type="line"/>
      <point x="199" y="565"/>
      <point x="245" y="596"/>
      <point x="309" y="596" type="curve"/>
      <point x="309" y="558" type="line"/>
      <point x="229" y="558"/>
      <point x="185" y="490"/>
      <point x="185" y="443" type="curve" smooth="yes"/>
      <point x="185" y="287" type="line" smooth="yes"/>
      <point x="185" y="244"/>
      <point x="236" y="170"/>
      <point x="309" y="170" type="curve"/>
      <point x="309" y="132" type="line"/>
      <point x="244" y="132"/>
      <point x="199" y="165"/>
      <point x="173" y="201" type="curve"/>
      <point x="99" y="135" type="line"/>
    </contour>
    <contour>
      <point x="350" y="132" type="line"/>
      <point x="413" y="132"/>
      <point x="457" y="165"/>
      <point x="482" y="201" type="curve"/>
      <point x="556" y="135" type="line"/>
      <point x="582" y="164" type="line"/>
      <point x="501" y="236" type="line"/>
      <point x="506" y="250"/>
      <point x="509" y="263"/>
      <point x="509" y="274" type="curve" smooth="yes"/>
      <point x="509" y="456" type="line" smooth="yes"/>
      <point x="509" y="467"/>
      <point x="506" y="480"/>
      <point x="501" y="494" type="curve"/>
      <point x="582" y="567" type="line"/>
      <point x="557" y="596" type="line"/>
      <point x="482" y="529" type="line"/>
      <point x="457" y="565"/>
      <point x="413" y="596"/>
      <point x="350" y="596" type="curve"/>
      <point x="350" y="558" type="line"/>
      <point x="425" y="558"/>
      <point x="469" y="488"/>
      <point x="469" y="443" type="curve" smooth="yes"/>
      <point x="469" y="285" type="line" smooth="yes"/>
      <point x="469" y="241"/>
      <point x="425" y="170"/>
      <point x="350" y="170" type="curve"/>
    </contour>
  </outline>
</glyph>
<glyph name="uni00A5" format="1">
  <advance width="479"/>
  <unicode hex="00A5"/>
  <outline>
    <contour>
      <point x="50" y="166" type="line"/>
      <point x="50" y="188" type="line"/>
      <point x="252" y="188" type="line"/>
      <point x="252" y="252" type="line"/>
      <point x="50" y="252" type="line"/>
      <point x="50" y="274" type="line"/>
      <point x="243" y="274" type="line"/>
      <point x="72" y="698" type="line"/>
      <point x="113" y="698" type="line"/>
      <point x="272" y="303" type="line"/>
      <point x="430" y="698" type="line"/>
      <point x="471" y="698" type="line"/>
      <point x="301" y="274" type="line"/>
      <point x="492" y="274" type="line"/>
      <point x="492" y="252" type="line"/>
      <point x="292" y="252" type="line"/>
      <point x="292" y="252" type="line"/>
      <point x="292" y="188" type="line"/>
      <point x="492" y="188" type="line"/>
      <point x="492" y="166" type="line"/>
      <point x="292" y="166" type="line"/>
      <point x="292" y="0" type="line"/>
      <point x="252" y="0" type="line"/>
      <point x="252" y="166" type="line"/>
    </contour>
  </outline>
</glyph>
<glyph name="uni00A7" format="1">
  <advance width="497"/>
  <unicode hex="00A7"/>
  <outline>
    <contour>
      <point x="27" y="356" type="curve" smooth="yes"/>
      <point x="27" y="263"/>
      <point x="76" y="230"/>
      <point x="150" y="202" type="curve" smooth="yes"/>
      <point x="172" y="194"/>
      <point x="210" y="190"/>
      <point x="251" y="183" type="curve"/>
      <point x="251" y="223" type="line"/>
      <point x="166" y="238"/>
      <point x="67" y="261"/>
      <point x="67" y="350" type="curve" smooth="yes"/>
      <point x="67" y="408"/>
      <point x="95" y="446"/>
      <point x="126" y="470" type="curve"/>
      <point x="147" y="449"/>
      <point x="176" y="435"/>
      <point x="211" y="422" type="curve" smooth="yes"/>
      <point x="221" y="418"/>
      <point x="235" y="415"/>
      <point x="251" y="412" type="curve"/>
      <point x="251" y="459" type="line"/>
      <point x="186" y="478"/>
      <point x="128" y="510"/>
      <point x="128" y="578" type="curve" smooth="yes"/>
      <point x="128" y="663"/>
      <point x="184" y="721"/>
      <point x="308" y="722" type="curve" smooth="yes"/>
      <point x="377" y="722" type="line"/>
      <point x="377" y="760" type="line"/>
      <point x="279" y="760" type="line" smooth="yes"/>
      <point x="208" y="760"/>
      <point x="88" y="720"/>
      <point x="88" y="576" type="curve" smooth="yes"/>
      <point x="88" y="546"/>
      <point x="93" y="523"/>
      <point x="102" y="504" type="curve"/>
      <point x="61" y="475"/>
      <point x="27" y="427"/>
    </contour>
    <contour>
      <point x="170" y="-98" type="line"/>
      <point x="170" y="-137" type="line"/>
      <point x="265" y="-137" type="line" smooth="yes"/>
      <point x="393" y="-137"/>
      <point x="460" y="-44"/>
      <point x="460" y="45" type="curve" smooth="yes"/>
      <point x="460" y="72"/>
      <point x="457" y="94"/>
      <point x="450" y="113" type="curve"/>
      <point x="494" y="152"/>
      <point x="521" y="208"/>
      <point x="521" y="265" type="curve" smooth="yes"/>
      <point x="521" y="373"/>
      <point x="462" y="408"/>
      <point x="393" y="427" type="curve" smooth="yes"/>
      <point x="368" y="434"/>
      <point x="333" y="439"/>
      <point x="296" y="447" type="curve"/>
      <point x="296" y="405" type="line"/>
      <point x="379" y="392"/>
      <point x="481" y="369"/>
      <point x="481" y="271" type="curve" smooth="yes"/>
      <point x="481" y="222"/>
      <point x="458" y="182"/>
      <point x="428" y="153" type="curve"/>
      <point x="404" y="182"/>
      <point x="369" y="197"/>
      <point x="332" y="207" type="curve" smooth="yes"/>
      <point x="322" y="210"/>
      <point x="309" y="213"/>
      <point x="296" y="215" type="curve"/>
      <point x="296" y="173" type="line"/>
      <point x="361" y="156"/>
      <point x="420" y="125"/>
      <point x="420" y="51" type="curve" smooth="yes"/>
      <point x="420" y="-47"/>
      <point x="346" y="-99"/>
      <point x="235" y="-98" type="curve" smooth="yes"/>
    </contour>
  </outline>
</glyph>
<glyph name="uni00A8" format="1">
  <advance width="199"/>
  <unicode hex="00A8"/>
  <outline>
    <contour>
      <point x="82" y="679" type="curve" smooth="yes"/>
      <point x="82" y="694"/>
      <point x="95" y="706"/>
      <point x="110" y="706" type="curve" smooth="yes"/>
      <point x="125" y="706"/>
      <point x="137" y="694"/>
      <point x="137" y="679" type="curve" smooth="yes"/>
      <point x="137" y="664"/>
      <point x="125" y="652"/>
      <point x="110" y="652" type="curve" smooth="yes"/>
      <point x="95" y="652"/>
      <point x="82" y="664"/>
    </contour>
    <contour>
      <point x="183" y="679" type="curve" smooth="yes"/>
      <point x="183" y="694"/>
      <point x="196" y="706"/>
      <point x="211" y="706" type="curve" smooth="yes"/>
      <point x="226" y="706"/>
      <point x="238" y="694"/>
      <point x="238" y="679" type="curve" smooth="yes"/>
      <point x="238" y="664"/>
      <point x="226" y="652"/>
      <point x="211" y="652" type="curve" smooth="yes"/>
      <point x="196" y="652"/>
      <point x="183" y="664"/>
    </contour>
  </outline>
</glyph>
<glyph name="uni00A9" format="1">
  <advance width="859"/>
  <unicode hex="00A9"/>
  <outline>
    <contour>
      <point x="80" y="327" type="curve"/>
      <point x="80" y="339" type="line" smooth="yes"/>
      <point x="80" y="577"/>
      <point x="286" y="696"/>
      <point x="415" y="694" type="curve"/>
      <point x="415" y="664" type="line"/>
      <point x="280" y="664"/>
      <point x="109" y="544"/>
      <point x="109" y="339" type="curve" smooth="yes"/>
      <point x="109" y="332" type="line"/>
      <point x="112" y="172"/>
      <point x="244" y="17"/>
      <point x="415" y="17" type="curve"/>
      <point x="415" y="-16" type="line"/>
      <point x="240" y="-16"/>
      <point x="86" y="136"/>
    </contour>
    <contour>
      <point x="286" y="247" type="curve" smooth="yes"/>
      <point x="286" y="267"/>
      <point x="286" y="358"/>
      <point x="286" y="429" type="curve" smooth="yes"/>
      <point x="286" y="486"/>
      <point x="327" y="565"/>
      <point x="416" y="565" type="curve"/>
      <point x="416" y="535" type="line"/>
      <point x="346" y="535"/>
      <point x="318" y="470"/>
      <point x="318" y="426" type="curve" smooth="yes"/>
      <point x="318" y="247" type="line" smooth="yes"/>
      <point x="318" y="195"/>
      <point x="357" y="142"/>
      <point x="416" y="142" type="curve"/>
      <point x="416" y="113" type="line"/>
      <point x="314" y="113"/>
      <point x="286" y="199"/>
    </contour>
    <contour>
      <point x="450" y="-16" type="curve"/>
      <point x="450" y="17" type="line"/>
      <point x="612" y="17"/>
      <point x="747" y="173"/>
      <point x="750" y="332" type="curve"/>
      <point x="750" y="339" type="line" smooth="yes"/>
      <point x="750" y="521"/>
      <point x="601" y="664"/>
      <point x="450" y="664" type="curve"/>
      <point x="450" y="694" type="line"/>
      <point x="603" y="694"/>
      <point x="779" y="552"/>
      <point x="779" y="339" type="curve" smooth="yes"/>
      <point x="779" y="327" type="line"/>
      <point x="773" y="134"/>
      <point x="612" y="-16"/>
    </contour>
    <contour>
      <point x="450" y="112" type="curve"/>
      <point x="450" y="142" type="line"/>
      <point x="497" y="142"/>
      <point x="536" y="190"/>
      <point x="536" y="243" type="curve"/>
      <point x="566" y="232" type="line"/>
      <point x="566" y="170"/>
      <point x="513" y="112"/>
    </contour>
    <contour>
      <point x="450" y="534" type="curve"/>
      <point x="450" y="565" type="line"/>
      <point x="514" y="565"/>
      <point x="564" y="508"/>
      <point x="564" y="446" type="curve"/>
      <point x="533" y="435" type="line"/>
      <point x="533" y="499"/>
      <point x="487" y="534"/>
    </contour>
  </outline>
</glyph>
<glyph name="uni00AA" format="1">
  <advance width="227"/>
  <unicode hex="00AA"/>
  <outline>
    <contour>
      <point x="26" y="413" type="line"/>
      <point x="26" y="430" type="line"/>
      <point x="201" y="430" type="line"/>
      <point x="201" y="413" type="line"/>
    </contour>
    <contour>
      <point x="30" y="521" type="curve" smooth="yes"/>
      <point x="30" y="542" type="line" smooth="yes"/>
      <point x="30" y="557"/>
      <point x="34" y="572"/>
      <point x="52" y="583" type="curve" smooth="yes"/>
      <point x="76" y="597"/>
      <point x="170" y="611"/>
      <point x="170" y="632" type="curve" smooth="yes"/>
      <point x="170" y="668"/>
      <point x="140" y="686"/>
      <point x="119" y="686" type="curve"/>
      <point x="119" y="703" type="line"/>
      <point x="166" y="703"/>
      <point x="187" y="663"/>
      <point x="187" y="631" type="curve" smooth="yes"/>
      <point x="187" y="500" type="line" smooth="yes"/>
      <point x="187" y="498"/>
      <point x="189" y="484"/>
      <point x="198" y="484" type="curve" smooth="yes"/>
      <point x="199" y="484" type="line"/>
      <point x="199" y="467" type="line"/>
      <point x="198" y="467" type="line" smooth="yes"/>
      <point x="182" y="467"/>
      <point x="175" y="475"/>
      <point x="170" y="484" type="curve"/>
      <point x="159" y="473"/>
      <point x="137" y="467"/>
      <point x="119" y="467" type="curve"/>
      <point x="119" y="484" type="line"/>
      <point x="142" y="484"/>
      <point x="170" y="492"/>
      <point x="170" y="534" type="curve" smooth="yes"/>
      <point x="170" y="602" type="line"/>
      <point x="153" y="595"/>
      <point x="69" y="578"/>
      <point x="53" y="562" type="curve" smooth="yes"/>
      <point x="48" y="557"/>
      <point x="48" y="536"/>
      <point x="48" y="531" type="curve" smooth="yes"/>
      <point x="48" y="496"/>
      <point x="74" y="484"/>
      <point x="99" y="484" type="curve"/>
      <point x="99" y="467" type="line"/>
      <point x="56" y="467"/>
      <point x="30" y="495"/>
    </contour>
    <contour>
      <point x="33" y="644" type="line"/>
      <point x="33" y="678"/>
      <point x="67" y="703"/>
      <point x="99" y="703" type="curve"/>
      <point x="99" y="685" type="line"/>
      <point x="75" y="685"/>
      <point x="50" y="666"/>
      <point x="50" y="637" type="curve"/>
    </contour>
  </outline>
</glyph>
<glyph name="uni00AB" format="1">
  <advance width="475"/>
  <unicode hex="00AB"/>
  <outline>
    <contour>
      <point x="27" y="281" type="line"/>
      <point x="27" y="299" type="line"/>
      <point x="238" y="455" type="line"/>
      <point x="238" y="405" type="line"/>
      <point x="82" y="292" type="line"/>
      <point x="238" y="174" type="line"/>
      <point x="238" y="124" type="line"/>
    </contour>
    <contour>
      <point x="238" y="281" type="line"/>
      <point x="238" y="299" type="line"/>
      <point x="449" y="455" type="line"/>
      <point x="449" y="405" type="line"/>
      <point x="293" y="292" type="line"/>
      <point x="449" y="174" type="line"/>
      <point x="449" y="124" type="line"/>
    </contour>
  </outline>
</glyph>
<glyph name="uni00AC" format="1">
  <advance width="502"/>
  <unicode hex="00AC"/>
  <outline>
    <contour>
      <point x="26" y="368" type="line"/>
      <point x="26" y="406" type="line"/>
      <point x="437" y="406" type="line"/>
      <point x="437" y="208" type="line"/>
      <point x="397" y="208" type="line"/>
      <point x="397" y="368" type="line"/>
    </contour>
  </outline>
</glyph>
<glyph name="uni00AE" format="1">
  <advance width="404"/>
  <unicode hex="00AE"/>
  <outline>
    <contour>
      <point x="45" y="523" type="curve" smooth="yes"/>
      <point x="45" y="525" type="line" smooth="yes"/>
      <point x="45" y="630"/>
      <point x="129" y="687"/>
      <point x="195" y="687" type="curve"/>
      <point x="195" y="676" type="line"/>
      <point x="119" y="676"/>
      <point x="55" y="611"/>
      <point x="55" y="526" type="curve"/>
      <point x="56" y="454"/>
      <point x="116" y="382"/>
      <point x="191" y="382" type="curve"/>
      <point x="192" y="370" type="line"/>
      <point x="113" y="370"/>
      <point x="45" y="447"/>
    </contour>
    <contour>
      <point x="153" y="432" type="line"/>
      <point x="153" y="627" type="line"/>
      <point x="164" y="627" type="line"/>
      <point x="164" y="432" type="line"/>
    </contour>
    <contour>
      <point x="176" y="524" type="curve"/>
      <point x="176" y="534" type="line"/>
      <point x="204" y="534" type="line" smooth="yes"/>
      <point x="237" y="534"/>
      <point x="259" y="546"/>
      <point x="259" y="570" type="curve" smooth="yes"/>
      <point x="259" y="615"/>
      <point x="221" y="616"/>
      <point x="184" y="616" type="curve" smooth="yes"/>
      <point x="176" y="616" type="line"/>
      <point x="176" y="627" type="line"/>
      <point x="209" y="627"/>
      <point x="270" y="632"/>
      <point x="270" y="570" type="curve" smooth="yes"/>
      <point x="270" y="547"/>
      <point x="257" y="536"/>
      <point x="241" y="530" type="curve"/>
      <point x="253" y="527"/>
      <point x="268" y="514"/>
      <point x="270" y="492" type="curve" smooth="yes"/>
      <point x="275" y="432" type="line"/>
      <point x="263" y="432" type="line"/>
      <point x="259" y="481" type="line" smooth="yes"/>
      <point x="256" y="516"/>
      <point x="247" y="524"/>
    </contour>
    <contour>
      <point x="211" y="371" type="curve"/>
      <point x="211" y="382" type="line"/>
      <point x="288" y="382"/>
      <point x="347" y="453"/>
      <point x="349" y="525" type="curve"/>
      <point x="349" y="527" type="line" smooth="yes"/>
      <point x="349" y="610"/>
      <point x="283" y="676"/>
      <point x="211" y="676" type="curve"/>
      <point x="211" y="687" type="line"/>
      <point x="280" y="687"/>
      <point x="359" y="622"/>
      <point x="359" y="528" type="curve" smooth="yes"/>
      <point x="359" y="523" type="line" smooth="yes"/>
      <point x="359" y="439"/>
      <point x="285" y="371"/>
    </contour>
  </outline>
</glyph>
<glyph name="uni00B0" format="1">
  <advance width="282"/>
  <unicode hex="00B0"/>
  <outline>
    <contour>
      <point x="71" y="583" type="curve" smooth="yes"/>
      <point x="71" y="621"/>
      <point x="102" y="652"/>
      <point x="140" y="652" type="curve" smooth="yes"/>
      <point x="178" y="652"/>
      <point x="210" y="621"/>
      <point x="210" y="583" type="curve" smooth="yes"/>
      <point x="210" y="545"/>
      <point x="178" y="514"/>
      <point x="140" y="514" type="curve" smooth="yes"/>
      <point x="102" y="514"/>
      <point x="71" y="545"/>
    </contour>
    <contour>
      <point x="102" y="583" type="curve" smooth="yes"/>
      <point x="102" y="562"/>
      <point x="119" y="545"/>
      <point x="140" y="545" type="curve" smooth="yes"/>
      <point x="162" y="545"/>
      <point x="179" y="562"/>
      <point x="179" y="583" type="curve" smooth="yes"/>
      <point x="179" y="605"/>
      <point x="162" y="622"/>
      <point x="140" y="622" type="curve" smooth="yes"/>
      <point x="119" y="622"/>
      <point x="102" y="605"/>
    </contour>
  </outline>
</glyph>
<glyph name="uni00B4" format="1">
  <advance width="263"/>
  <unicode hex="00B4"/>
  <outline>
    <contour>
      <point x="86" y="605" type="line"/>
      <point x="123" y="757" type="line"/>
      <point x="163" y="757" type="line"/>
      <point x="114" y="605" type="line"/>
    </contour>
  </outline>
</glyph>
<glyph name="uni00B5" format="1">
  <advance width="468"/>
  <unicode hex="00B5"/>
  <outline>
    <contour>
      <point x="26" y="0" type="line"/>
      <point x="26" y="698" type="line"/>
      <point x="66" y="698" type="line"/>
      <point x="66" y="316" type="line" smooth="yes"/>
      <point x="66" y="288"/>
      <point x="124" y="258"/>
      <point x="187" y="258" type="curve" smooth="yes"/>
      <point x="192" y="258" type="line"/>
      <point x="192" y="220" type="line"/>
      <point x="187" y="220" type="line" smooth="yes"/>
      <point x="118" y="220"/>
      <point x="78" y="250"/>
      <point x="66" y="253" type="curve"/>
      <point x="66" y="0" type="line"/>
    </contour>
    <contour>
      <point x="234" y="220" type="line"/>
      <point x="234" y="258" type="line"/>
      <point x="239" y="258" type="line" smooth="yes"/>
      <point x="300" y="258"/>
      <point x="360" y="287"/>
      <point x="360" y="316" type="curve" smooth="yes"/>
      <point x="360" y="698" type="line"/>
      <point x="360" y="700" type="line"/>
      <point x="400" y="700" type="line"/>
      <point x="400" y="698" type="line"/>
      <point x="400" y="315" type="line" smooth="yes"/>
      <point x="400" y="283"/>
      <point x="403" y="261"/>
      <point x="437" y="261" type="curve" smooth="yes"/>
      <point x="442" y="261" type="line"/>
      <point x="442" y="222" type="line"/>
      <point x="437" y="222" type="line" smooth="yes"/>
      <point x="397" y="222"/>
      <point x="382" y="236"/>
      <point x="367" y="257" type="curve"/>
      <point x="341" y="237"/>
      <point x="293" y="220"/>
      <point x="239" y="220" type="curve" smooth="yes"/>
    </contour>
  </outline>
</glyph>
<glyph name="uni00B6" format="1">
  <advance width="444"/>
  <unicode hex="00B6"/>
  <outline>
    <contour>
      <point x="85" y="517" type="curve" smooth="yes"/>
      <point x="85" y="617"/>
      <point x="152" y="705"/>
      <point x="254" y="705" type="curve" smooth="yes"/>
      <point x="282" y="705"/>
      <point x="256" y="705"/>
      <point x="284" y="705" type="curve"/>
      <point x="284" y="-5" type="line"/>
      <point x="254" y="-5" type="line"/>
      <point x="254" y="329" type="line"/>
      <point x="150" y="329"/>
      <point x="85" y="403"/>
    </contour>
    <contour>
      <point x="329" y="-5" type="line"/>
      <point x="329" y="705" type="line"/>
      <point x="359" y="705" type="line"/>
      <point x="359" y="-5" type="line"/>
    </contour>
  </outline>
</glyph>
<glyph name="uni00B8" format="1">
  <advance width="219"/>
  <unicode hex="00B8"/>
  <outline>
    <contour>
      <point x="26" y="-9" type="curve"/>
      <point x="26" y="29" type="line"/>
      <point x="85" y="29"/>
      <point x="127" y="68"/>
      <point x="127" y="123" type="curve"/>
      <point x="167" y="123" type="line"/>
      <point x="167" y="67"/>
      <point x="127" y="-9"/>
    </contour>
  </outline>
</glyph>
<glyph name="uni00BA" format="1">
  <advance width="230"/>
  <unicode hex="00BA"/>
  <outline>
    <contour>
      <point x="26" y="413" type="line"/>
      <point x="26" y="432" type="line"/>
      <point x="204" y="432" type="line"/>
      <point x="204" y="413" type="line"/>
    </contour>
    <component base="uni006F" xScale="0.443625" yScale="0.443625" xOffset="21" yOffset="471"/>
  </outline>
</glyph>
<glyph name="uni00BB" format="1">
  <advance width="414"/>
  <unicode hex="00BB"/>
  <outline>
    <contour>
      <point x="26" y="144" type="line"/>
      <point x="26" y="184" type="line"/>
      <point x="202" y="292" type="line"/>
      <point x="26" y="394" type="line"/>
      <point x="26" y="434" type="line"/>
      <point x="237" y="309" type="line"/>
      <point x="237" y="271" type="line"/>
    </contour>
    <contour>
      <point x="237" y="144" type="line"/>
      <point x="237" y="184" type="line"/>
      <point x="413" y="292" type="line"/>
      <point x="237" y="394" type="line"/>
      <point x="237" y="434" type="line"/>
      <point x="448" y="309" type="line"/>
      <point x="448" y="271" type="line"/>
    </contour>
  </outline>
</glyph>
<glyph name="uni00BC" format="1">
  <advance width="560"/>
  <unicode hex="00BC"/>
  <outline>
    <contour>
      <point x="52" y="-2" type="line"/>
      <point x="484" y="702" type="line"/>
      <point x="509" y="702" type="line"/>
      <point x="77" y="-2" type="line"/>
    </contour>
    <component base="uni0034" xScale="0.5" yScale="0.5" xOffset="258" yOffset="-1"/>
    <component base="uni0031" xScale="0.5" yScale="0.5" xOffset="66" yOffset="351"/>
  </outline>
</glyph>
<glyph name="uni00BD" format="1">
  <advance width="581"/>
  <unicode hex="00BD"/>
  <outline>
    <contour>
      <point x="52" y="-2" type="line"/>
      <point x="484" y="702" type="line"/>
      <point x="509" y="702" type="line"/>
      <point x="77" y="-2" type="line"/>
    </contour>
    <component base="uni0032" xScale="0.5" yScale="0.5" xOffset="326" yOffset="1"/>
    <component base="uni0031" xScale="0.5" yScale="0.5" xOffset="66" yOffset="352"/>
  </outline>
</glyph>
<glyph name="uni00BE" format="1">
  <advance width="584"/>
  <unicode hex="00BE"/>
  <outline>
    <contour>
      <point x="75" y="-2" type="line"/>
      <point x="507" y="702" type="line"/>
      <point x="532" y="702" type="line"/>
      <point x="100" y="-2" type="line"/>
    </contour>
    <component base="uni0034" xScale="0.5" yScale="0.5" xOffset="282" yOffset="-2"/>
    <component base="uni0033" xScale="0.5" yScale="0.5" xOffset="15" yOffset="349"/>
  </outline>
</glyph>
<glyph name="uni00C5" format="1">
  <advance width="516"/>
  <unicode hex="00C5"/>
  <outline>
    <contour>
      <point x="74" y="0" type="line"/>
      <point x="211" y="599" type="line"/>
      <point x="228" y="599" type="line"/>
      <point x="238" y="554" type="line"/>
      <point x="114" y="0" type="line"/>
    </contour>
    <contour>
      <point x="188" y="135" type="line"/>
      <point x="196" y="173" type="line"/>
      <point x="366" y="173" type="line"/>
      <point x="252" y="694" type="line"/>
      <point x="220" y="701"/>
      <point x="196" y="731"/>
      <point x="196" y="765" type="curve" smooth="yes"/>
      <point x="196" y="805"/>
      <point x="228" y="837"/>
      <point x="268" y="837" type="curve" smooth="yes"/>
      <point x="308" y="837"/>
      <point x="341" y="805"/>
      <point x="341" y="765" type="curve" smooth="yes"/>
      <point x="341" y="733"/>
      <point x="321" y="706"/>
      <point x="292" y="696" type="curve"/>
      <point x="443" y="0" type="line"/>
      <point x="403" y="0" type="line"/>
      <point x="375" y="135" type="line"/>
    </contour>
    <contour>
      <point x="230" y="765" type="curve" smooth="yes"/>
      <point x="230" y="744"/>
      <point x="247" y="727"/>
      <point x="268" y="727" type="curve" smooth="yes"/>
      <point x="290" y="727"/>
      <point x="307" y="744"/>
      <point x="307" y="765" type="curve" smooth="yes"/>
      <point x="307" y="787"/>
      <point x="290" y="804"/>
      <point x="268" y="804" type="curve" smooth="yes"/>
      <point x="247" y="804"/>
      <point x="230" y="787"/>
    </contour>
  </outline>
</glyph>
<glyph name="uni00C6" format="1">
  <advance width="727"/>
  <unicode hex="00C6"/>
  <outline>
    <contour>
      <point x="81" y="0" type="line"/>
      <point x="261" y="700" type="line"/>
      <point x="701" y="700" type="line"/>
      <point x="701" y="661" type="line"/>
      <point x="427" y="661" type="line"/>
      <point x="427" y="367" type="line"/>
      <point x="607" y="367" type="line"/>
      <point x="607" y="329" type="line"/>
      <point x="427" y="329" type="line"/>
      <point x="427" y="38" type="line"/>
      <point x="701" y="38" type="line"/>
      <point x="701" y="0" type="line"/>
      <point x="387" y="0" type="line"/>
      <point x="387" y="188" type="line"/>
      <point x="218" y="188" type="line"/>
      <point x="228" y="228" type="line"/>
      <point x="387" y="228" type="line"/>
      <point x="387" y="661" type="line"/>
      <point x="293" y="661" type="line"/>
      <point x="125" y="0" type="line"/>
    </contour>
  </outline>
</glyph>
<glyph name="uni00D0" format="1">
  <advance width="452"/>
  <unicode hex="00D0"/>
  <outline>
    <contour>
      <point x="26" y="335" type="line"/>
      <point x="26" y="373" type="line"/>
      <point x="82" y="373" type="line"/>
      <point x="82" y="700" type="line"/>
      <point x="122" y="700" type="line"/>
      <point x="122" y="373" type="line"/>
      <point x="178" y="373" type="line"/>
      <point x="178" y="335" type="line"/>
      <point x="122" y="335" type="line"/>
      <point x="122" y="0" type="line"/>
      <point x="82" y="0" type="line"/>
      <point x="82" y="335" type="line"/>
    </contour>
    <contour>
      <point x="167" y="0" type="curve"/>
      <point x="167" y="38" type="line"/>
      <point x="310" y="38"/>
      <point x="434" y="41"/>
      <point x="434" y="197" type="curve" smooth="yes"/>
      <point x="434" y="503" type="line" smooth="yes"/>
      <point x="434" y="669"/>
      <point x="303" y="662"/>
      <point x="167" y="662" type="curve"/>
      <point x="167" y="700" type="line"/>
      <point x="321" y="700"/>
      <point x="474" y="706"/>
      <point x="474" y="503" type="curve" smooth="yes"/>
      <point x="474" y="197" type="line" smooth="yes"/>
      <point x="474" y="0"/>
      <point x="327" y="0"/>
    </contour>
  </outline>
</glyph>
<glyph name="uni00D7" format="1">
  <advance width="493"/>
  <unicode hex="00D7"/>
  <outline>
    <contour>
      <point x="112" y="229" type="line"/>
      <point x="300" y="417" type="line"/>
      <point x="113" y="605" type="line"/>
      <point x="142" y="635" type="line"/>
      <point x="330" y="447" type="line"/>
      <point x="520" y="636" type="line"/>
      <point x="549" y="606" type="line"/>
      <point x="360" y="417" type="line"/>
      <point x="549" y="227" type="line"/>
      <point x="520" y="197" type="line"/>
      <point x="330" y="388" type="line"/>
      <point x="141" y="199" type="line"/>
    </contour>
  </outline>
</glyph>
<glyph name="uni00D8" format="1">
  <advance width="508"/>
  <unicode hex="00D8"/>
  <outline>
    <contour>
      <point x="24" y="100" type="line"/>
      <point x="109" y="177" type="line"/>
      <point x="109" y="183"/>
      <point x="108" y="189"/>
      <point x="108" y="195" type="curve" smooth="yes"/>
      <point x="108" y="524" type="line" smooth="yes"/>
      <point x="108" y="584"/>
      <point x="173" y="705"/>
      <point x="305" y="705" type="curve"/>
      <point x="305" y="666" type="line"/>
      <point x="207" y="666"/>
      <point x="148" y="566"/>
      <point x="148" y="508" type="curve" smooth="yes"/>
      <point x="148" y="212" type="line"/>
      <point x="512" y="539" type="line"/>
      <point x="497" y="598"/>
      <point x="443" y="666"/>
      <point x="359" y="666" type="curve"/>
      <point x="359" y="705" type="line"/>
      <point x="461" y="705"/>
      <point x="523" y="631"/>
      <point x="546" y="570" type="curve"/>
      <point x="610" y="627" type="line"/>
      <point x="636" y="600" type="line"/>
      <point x="556" y="528" type="line" smooth="yes"/>
      <point x="556" y="527"/>
      <point x="556" y="525"/>
      <point x="556" y="524" type="curve" smooth="yes"/>
      <point x="556" y="195" type="line" smooth="yes"/>
      <point x="556" y="51"/>
      <point x="419" y="-5"/>
      <point x="359" y="-5" type="curve"/>
      <point x="359" y="34" type="line"/>
      <point x="415" y="34"/>
      <point x="516" y="90"/>
      <point x="516" y="195" type="curve" smooth="yes"/>
      <point x="516" y="492" type="line"/>
      <point x="151" y="164" type="line"/>
      <point x="169" y="81"/>
      <point x="256" y="34"/>
      <point x="304" y="34" type="curve"/>
      <point x="304" y="-5" type="line"/>
      <point x="253" y="-5"/>
      <point x="149" y="35"/>
      <point x="117" y="134" type="curve"/>
      <point x="51" y="74" type="line"/>
    </contour>
  </outline>
</glyph>
<glyph name="uni00DE" format="1">
  <advance width="474"/>
  <unicode hex="00DE"/>
  <outline>
    <contour>
      <point x="76" y="0" type="line"/>
      <point x="76" y="700" type="line"/>
      <point x="116" y="700" type="line"/>
      <point x="116" y="0" type="line"/>
    </contour>
    <contour>
      <point x="167" y="208" type="curve"/>
      <point x="167" y="246" type="line"/>
      <point x="210" y="246" type="line" smooth="yes"/>
      <point x="304" y="246"/>
      <point x="408" y="264"/>
      <point x="408" y="398" type="curve" smooth="yes"/>
      <point x="408" y="531"/>
      <point x="308" y="552"/>
      <point x="208" y="552" type="curve" smooth="yes"/>
      <point x="167" y="552" type="line"/>
      <point x="167" y="590" type="line"/>
      <point x="376" y="597"/>
      <point x="446" y="548"/>
      <point x="448" y="398" type="curve" smooth="yes"/>
      <point x="450" y="238"/>
      <point x="344" y="197"/>
    </contour>
  </outline>
</glyph>
<glyph name="uni00DF" format="1">
  <advance width="522"/>
  <unicode hex="00DF"/>
  <outline>
    <contour>
      <point x="26" y="0" type="line"/>
      <point x="26" y="457" type="line" smooth="yes"/>
      <point x="27" y="531"/>
      <point x="16" y="705"/>
      <point x="226" y="705" type="curve" smooth="yes"/>
      <point x="396" y="705"/>
      <point x="406" y="575"/>
      <point x="406" y="518" type="curve" smooth="yes"/>
      <point x="406" y="406" type="line"/>
      <point x="355" y="406" type="line" smooth="yes"/>
      <point x="322" y="407"/>
      <point x="305" y="386"/>
      <point x="305" y="371" type="curve" smooth="yes"/>
      <point x="305" y="349"/>
      <point x="310" y="326"/>
      <point x="391" y="299" type="curve" smooth="yes"/>
      <point x="441" y="282"/>
      <point x="496" y="247"/>
      <point x="496" y="153" type="curve" smooth="yes"/>
      <point x="496" y="60"/>
      <point x="420" y="0"/>
      <point x="327" y="0" type="curve" smooth="yes"/>
      <point x="199" y="0" type="line"/>
      <point x="199" y="38" type="line"/>
      <point x="299" y="38" type="line" smooth="yes"/>
      <point x="376" y="38"/>
      <point x="458" y="64"/>
      <point x="458" y="153" type="curve" smooth="yes"/>
      <point x="458" y="222"/>
      <point x="441" y="233"/>
      <point x="386" y="261" type="curve" smooth="yes"/>
      <point x="338" y="285"/>
      <point x="265" y="296"/>
      <point x="265" y="371" type="curve" smooth="yes"/>
      <point x="265" y="432"/>
      <point x="320" y="447"/>
      <point x="366" y="444" type="curve"/>
      <point x="366" y="456" type="line" smooth="yes"/>
      <point x="366" y="554"/>
      <point x="382" y="667"/>
      <point x="226" y="667" type="curve" smooth="yes"/>
      <point x="78" y="667"/>
      <point x="66" y="554"/>
      <point x="66" y="498" type="curve" smooth="yes"/>
      <point x="66" y="0" type="line"/>
    </contour>
  </outline>
</glyph>
<glyph name="uni00E6" format="1">
  <advance width="435"/>
  <unicode hex="00E6"/>
  <outline>
    <contour>
      <point x="26" y="121" type="curve" smooth="yes"/>
      <point x="26" y="167" type="line" smooth="yes"/>
      <point x="26" y="200"/>
      <point x="33" y="233"/>
      <point x="75" y="257" type="curve" smooth="yes"/>
      <point x="129" y="288"/>
      <point x="344" y="316"/>
      <point x="344" y="363" type="curve" smooth="yes"/>
      <point x="344" y="441"/>
      <point x="276" y="483"/>
      <point x="227" y="483" type="curve"/>
      <point x="227" y="519" type="line"/>
      <point x="296" y="519"/>
      <point x="342" y="483"/>
      <point x="365" y="438" type="curve"/>
      <point x="390" y="478"/>
      <point x="438" y="516"/>
      <point x="507" y="516" type="curve"/>
      <point x="507" y="478" type="line"/>
      <point x="435" y="478"/>
      <point x="384" y="410"/>
      <point x="384" y="369" type="curve" smooth="yes"/>
      <point x="384" y="361" type="line"/>
      <point x="384" y="285" type="line"/>
      <point x="675" y="285" type="line"/>
      <point x="675" y="369" type="line" smooth="yes"/>
      <point x="675" y="428"/>
      <point x="613" y="480"/>
      <point x="552" y="480" type="curve"/>
      <point x="552" y="516" type="line"/>
      <point x="628" y="516"/>
      <point x="715" y="453"/>
      <point x="715" y="378" type="curve" smooth="yes"/>
      <point x="715" y="247" type="line"/>
      <point x="384" y="247" type="line"/>
      <point x="384" y="141" type="line" smooth="yes"/>
      <point x="384" y="105"/>
      <point x="441" y="38"/>
      <point x="508" y="38" type="curve"/>
      <point x="508" y="0" type="line"/>
      <point x="447" y="0"/>
      <point x="392" y="37"/>
      <point x="371" y="73" type="curve"/>
      <point x="340" y="19"/>
      <point x="290" y="0"/>
      <point x="227" y="1" type="curve"/>
      <point x="227" y="39" type="line"/>
      <point x="284" y="39"/>
      <point x="344" y="52"/>
      <point x="344" y="149" type="curve" smooth="yes"/>
      <point x="344" y="298" type="line"/>
      <point x="306" y="283"/>
      <point x="114" y="246"/>
      <point x="78" y="210" type="curve" smooth="yes"/>
      <point x="66" y="198"/>
      <point x="66" y="153"/>
      <point x="66" y="142" type="curve" smooth="yes"/>
      <point x="66" y="66"/>
      <point x="125" y="39"/>
      <point x="182" y="39" type="curve"/>
      <point x="182" y="1" type="line"/>
      <point x="85" y="1"/>
      <point x="26" y="64"/>
    </contour>
    <contour>
      <point x="33" y="389" type="line"/>
      <point x="32" y="463"/>
      <point x="109" y="519"/>
      <point x="182" y="519" type="curve"/>
      <point x="182" y="481" type="line"/>
      <point x="127" y="481"/>
      <point x="70" y="438"/>
      <point x="70" y="375" type="curve"/>
    </contour>
    <contour>
      <point x="552" y="0" type="curve"/>
      <point x="552" y="41" type="line"/>
      <point x="623" y="41"/>
      <point x="668" y="98"/>
      <point x="677" y="134" type="curve"/>
      <point x="716" y="120" type="line"/>
      <point x="697" y="56"/>
      <point x="640" y="0"/>
    </contour>
  </outline>
</glyph>
<glyph name="uni00EC" format="1">
  <advance width="199"/>
  <unicode hex="00EC"/>
  <outline>
    <contour>
      <point x="39" y="729" type="line"/>
      <point x="79" y="729" type="line"/>
      <point x="115" y="577" type="line"/>
      <point x="87" y="577" type="line"/>
    </contour>
    <contour>
      <point x="80" y="0" type="line"/>
      <point x="80" y="516" type="line"/>
      <point x="120" y="516" type="line"/>
      <point x="120" y="0" type="line"/>
    </contour>
  </outline>
</glyph>
<glyph name="uni00EE" format="1">
  <advance width="174"/>
  <unicode hex="00EE"/>
  <outline>
    <contour>
      <point x="68" y="0" type="line"/>
      <point x="68" y="516" type="line"/>
      <point x="108" y="516" type="line"/>
      <point x="108" y="0" type="line"/>
    </contour>
    <component base="uni02C6" xOffset="-48" yOffset="63"/>
  </outline>
</glyph>
<glyph name="uni00EF" format="1">
  <advance width="199"/>
  <unicode hex="00EF"/>
  <outline>
    <contour>
      <point x="29" y="651" type="curve" smooth="yes"/>
      <point x="29" y="668"/>
      <point x="42" y="682"/>
      <point x="59" y="682" type="curve" smooth="yes"/>
      <point x="76" y="682"/>
      <point x="89" y="668"/>
      <point x="89" y="651" type="curve" smooth="yes"/>
      <point x="89" y="634"/>
      <point x="76" y="621"/>
      <point x="59" y="621" type="curve" smooth="yes"/>
      <point x="42" y="621"/>
      <point x="29" y="634"/>
    </contour>
    <contour>
      <point x="80" y="0" type="line"/>
      <point x="80" y="516" type="line"/>
      <point x="120" y="516" type="line"/>
      <point x="120" y="0" type="line"/>
    </contour>
    <contour>
      <point x="109" y="651" type="curve" smooth="yes"/>
      <point x="109" y="668"/>
      <point x="122" y="682"/>
      <point x="139" y="682" type="curve" smooth="yes"/>
      <point x="156" y="682"/>
      <point x="169" y="668"/>
      <point x="169" y="651" type="curve" smooth="yes"/>
      <point x="169" y="634"/>
      <point x="156" y="621"/>
      <point x="139" y="621" type="curve" smooth="yes"/>
      <point x="122" y="621"/>
      <point x="109" y="634"/>
    </contour>
  </outline>
</glyph>
<glyph name="uni00F0" format="1">
  <advance width="420"/>
  <unicode hex="00F0"/>
  <outline>
    <contour>
      <point x="28" y="141" type="curve" smooth="yes"/>
      <point x="28" y="376" type="line" smooth="yes"/>
      <point x="28" y="425"/>
      <point x="82" y="516"/>
      <point x="192" y="516" type="curve"/>
      <point x="192" y="478" type="line"/>
      <point x="112" y="478"/>
      <point x="68" y="410"/>
      <point x="68" y="363" type="curve" smooth="yes"/>
      <point x="68" y="154" type="line" smooth="yes"/>
      <point x="68" y="111"/>
      <point x="119" y="37"/>
      <point x="192" y="37" type="curve"/>
      <point x="192" y="-1" type="line"/>
      <point x="80" y="-1"/>
      <point x="28" y="93"/>
    </contour>
    <contour>
      <point x="192" y="686" type="curve"/>
      <point x="192" y="714" type="line"/>
      <point x="242" y="705"/>
      <point x="298" y="683"/>
      <point x="338" y="632" type="curve"/>
      <point x="397" y="649" type="line"/>
      <point x="408" y="613" type="line"/>
      <point x="359" y="598" type="line"/>
      <point x="380" y="558"/>
      <point x="392" y="506"/>
      <point x="392" y="436" type="curve" smooth="yes"/>
      <point x="392" y="141" type="line" smooth="yes"/>
      <point x="392" y="92"/>
      <point x="341" y="-1"/>
      <point x="233" y="-1" type="curve"/>
      <point x="233" y="37" type="line"/>
      <point x="308" y="37"/>
      <point x="352" y="108"/>
      <point x="352" y="152" type="curve" smooth="yes"/>
      <point x="351" y="373" type="line" smooth="yes"/>
      <point x="351" y="418"/>
      <point x="303" y="478"/>
      <point x="233" y="478" type="curve"/>
      <point x="233" y="516" type="line"/>
      <point x="283" y="516"/>
      <point x="321" y="497"/>
      <point x="347" y="471" type="curve"/>
      <point x="347" y="520"/>
      <point x="336" y="558"/>
      <point x="320" y="587" type="curve"/>
      <point x="255" y="567" type="line"/>
      <point x="244" y="604" type="line"/>
      <point x="298" y="620" type="line"/>
      <point x="265" y="658"/>
      <point x="221" y="675"/>
    </contour>
  </outline>
</glyph>
<glyph name="uni00F7" format="1">
  <advance width="650"/>
  <unicode hex="00F7"/>
  <outline>
    <contour>
      <point x="100" y="273" type="line"/>
      <point x="100" y="311" type="line"/>
      <point x="550" y="311" type="line"/>
      <point x="550" y="273" type="line"/>
    </contour>
    <component base="uni002E" xOffset="196" yOffset="376"/>
    <component base="uni002E" xOffset="196" yOffset="199"/>
  </outline>
</glyph>
<glyph name="uni00F8" format="1">
  <advance width="420"/>
  <unicode hex="00F8"/>
  <outline>
    <contour>
      <point x="14" y="68" type="line"/>
      <point x="69" y="118" type="line"/>
      <point x="67" y="126"/>
      <point x="66" y="134"/>
      <point x="66" y="141" type="curve" smooth="yes"/>
      <point x="66" y="376" type="line" smooth="yes"/>
      <point x="66" y="425"/>
      <point x="120" y="516"/>
      <point x="230" y="516" type="curve"/>
      <point x="230" y="478" type="line"/>
      <point x="150" y="478"/>
      <point x="106" y="410"/>
      <point x="106" y="363" type="curve" smooth="yes"/>
      <point x="106" y="154" type="line" smooth="yes"/>
      <point x="106" y="153"/>
      <point x="106" y="153"/>
      <point x="106" y="152" type="curve" smooth="yes"/>
      <point x="380" y="404" type="line"/>
      <point x="363" y="441"/>
      <point x="325" y="478"/>
      <point x="271" y="478" type="curve"/>
      <point x="271" y="516" type="line"/>
      <point x="343" y="516"/>
      <point x="390" y="476"/>
      <point x="413" y="434" type="curve"/>
      <point x="459" y="475" type="line"/>
      <point x="486" y="446" type="line"/>
      <point x="428" y="393" type="line"/>
      <point x="429" y="387"/>
      <point x="430" y="381"/>
      <point x="430" y="376" type="curve" smooth="yes"/>
      <point x="430" y="141" type="line" smooth="yes"/>
      <point x="430" y="92"/>
      <point x="379" y="-1"/>
      <point x="271" y="-1" type="curve"/>
      <point x="271" y="37" type="line"/>
      <point x="346" y="37"/>
      <point x="390" y="108"/>
      <point x="390" y="152" type="curve" smooth="yes"/>
      <point x="390" y="358" type="line"/>
      <point x="119" y="110" type="line"/>
      <point x="139" y="73"/>
      <point x="179" y="37"/>
      <point x="230" y="37" type="curve"/>
      <point x="230" y="-1" type="line"/>
      <point x="158" y="-1"/>
      <point x="110" y="38"/>
      <point x="86" y="79" type="curve"/>
      <point x="41" y="38" type="line"/>
    </contour>
  </outline>
</glyph>
<glyph name="uni00FE" format="1">
  <advance width="422"/>
  <unicode hex="00FE"/>
  <outline>
    <contour>
      <point x="30" y="-182" type="line"/>
      <point x="30" y="700" type="line"/>
      <point x="70" y="700" type="line"/>
      <point x="70" y="-182" type="line"/>
    </contour>
    <contour>
      <point x="115" y="478" type="line"/>
      <point x="115" y="516" type="line"/>
      <point x="228" y="516" type="line" smooth="yes"/>
      <point x="335" y="516"/>
      <point x="396" y="431"/>
      <point x="396" y="375" type="curve" smooth="yes"/>
      <point x="396" y="139" type="line" smooth="yes"/>
      <point x="396" y="86"/>
      <point x="345" y="0"/>
      <point x="232" y="0" type="curve" smooth="yes"/>
      <point x="122" y="0" type="line"/>
      <point x="122" y="38" type="line"/>
      <point x="234" y="38" type="line" smooth="yes"/>
      <point x="294" y="38"/>
      <point x="356" y="76"/>
      <point x="356" y="158" type="curve" smooth="yes"/>
      <point x="356" y="364" type="line" smooth="yes"/>
      <point x="356" y="434"/>
      <point x="300" y="478"/>
      <point x="228" y="478" type="curve" smooth="yes"/>
    </contour>
  </outline>
</glyph>
<glyph name="uni0131" format="1">
  <advance width="174"/>
  <unicode hex="0131"/>
  <outline>
    <contour>
      <point x="68" y="0" type="line"/>
      <point x="68" y="516" type="line"/>
      <point x="108" y="516" type="line"/>
      <point x="108" y="0" type="line"/>
    </contour>
  </outline>
</glyph>
<glyph name="uni0141" format="1">
  <advance width="428"/>
  <unicode hex="0141"/>
  <outline>
    <contour>
      <point x="51" y="271" type="line"/>
      <point x="129" y="331" type="line"/>
      <point x="129" y="700" type="line"/>
      <point x="169" y="700" type="line"/>
      <point x="169" y="361" type="line"/>
      <point x="237" y="414" type="line"/>
      <point x="262" y="382" type="line"/>
      <point x="169" y="311" type="line"/>
      <point x="169" y="38" type="line"/>
      <point x="505" y="38" type="line"/>
      <point x="505" y="0" type="line"/>
      <point x="129" y="0" type="line"/>
      <point x="129" y="280" type="line"/>
      <point x="76" y="239" type="line"/>
    </contour>
  </outline>
</glyph>
<glyph name="uni0142" format="1">
  <advance width="424"/>
  <unicode hex="0142"/>
  <outline>
    <contour>
      <point x="107" y="317" type="line"/>
      <point x="293" y="460" type="line"/>
      <point x="318" y="428" type="line"/>
      <point x="132" y="285" type="line"/>
    </contour>
    <contour>
      <point x="191" y="0" type="line"/>
      <point x="191" y="698" type="line"/>
      <point x="231" y="698" type="line"/>
      <point x="231" y="0" type="line"/>
    </contour>
  </outline>
</glyph>
<glyph name="uni0152" format="1">
  <advance width="422"/>
  <unicode hex="0152"/>
  <outline>
    <contour>
      <point x="-27" y="197" type="line" smooth="yes"/>
      <point x="-27" y="0"/>
      <point x="98" y="0"/>
      <point x="258" y="0" type="curve"/>
      <point x="258" y="38" type="line"/>
      <point x="115" y="38"/>
      <point x="13" y="41"/>
      <point x="13" y="197" type="curve" smooth="yes"/>
      <point x="13" y="503" type="line" smooth="yes"/>
      <point x="13" y="669"/>
      <point x="122" y="662"/>
      <point x="258" y="662" type="curve"/>
      <point x="258" y="700" type="line"/>
      <point x="104" y="700"/>
      <point x="-27" y="706"/>
      <point x="-27" y="503" type="curve" smooth="yes"/>
    </contour>
    <contour>
      <point x="303" y="0" type="line"/>
      <point x="303" y="38" type="line"/>
      <point x="334" y="38" type="line"/>
      <point x="334" y="662" type="line"/>
      <point x="303" y="662" type="line"/>
      <point x="303" y="700" type="line"/>
      <point x="698" y="700" type="line"/>
      <point x="698" y="662" type="line"/>
      <point x="374" y="662" type="line"/>
      <point x="374" y="368" type="line"/>
      <point x="604" y="368" type="line"/>
      <point x="604" y="330" type="line"/>
      <point x="374" y="330" type="line"/>
      <point x="374" y="38" type="line"/>
      <point x="698" y="38" type="line"/>
      <point x="698" y="0" type="line"/>
    </contour>
  </outline>
</glyph>
<glyph name="uni0153" format="1">
  <advance width="420"/>
  <unicode hex="0153"/>
  <outline>
    <contour>
      <point x="28" y="141" type="curve" smooth="yes"/>
      <point x="28" y="376" type="line" smooth="yes"/>
      <point x="28" y="425"/>
      <point x="82" y="516"/>
      <point x="192" y="516" type="curve"/>
      <point x="192" y="478" type="line"/>
      <point x="112" y="478"/>
      <point x="68" y="410"/>
      <point x="68" y="363" type="curve" smooth="yes"/>
      <point x="68" y="154" type="line" smooth="yes"/>
      <point x="68" y="111"/>
      <point x="119" y="37"/>
      <point x="192" y="37" type="curve"/>
      <point x="192" y="-1" type="line"/>
      <point x="80" y="-1"/>
      <point x="28" y="93"/>
    </contour>
    <contour>
      <point x="233" y="-1" type="curve"/>
      <point x="233" y="37" type="line"/>
      <point x="308" y="37"/>
      <point x="352" y="108"/>
      <point x="352" y="152" type="curve" smooth="yes"/>
      <point x="352" y="363" type="line" smooth="yes"/>
      <point x="352" y="408"/>
      <point x="308" y="478"/>
      <point x="233" y="478" type="curve"/>
      <point x="233" y="516" type="line"/>
      <point x="303" y="516"/>
      <point x="349" y="477"/>
      <point x="373" y="437" type="curve"/>
      <point x="398" y="477"/>
      <point x="445" y="516"/>
      <point x="515" y="516" type="curve"/>
      <point x="515" y="478" type="line"/>
      <point x="443" y="478"/>
      <point x="392" y="410"/>
      <point x="392" y="369" type="curve" smooth="yes"/>
      <point x="392" y="285" type="line"/>
      <point x="683" y="285" type="line"/>
      <point x="683" y="369" type="line" smooth="yes"/>
      <point x="683" y="428"/>
      <point x="621" y="480"/>
      <point x="560" y="480" type="curve"/>
      <point x="560" y="516" type="line"/>
      <point x="636" y="516"/>
      <point x="723" y="453"/>
      <point x="723" y="378" type="curve" smooth="yes"/>
      <point x="723" y="247" type="line"/>
      <point x="392" y="247" type="line"/>
      <point x="392" y="141" type="line" smooth="yes"/>
      <point x="392" y="105"/>
      <point x="449" y="38"/>
      <point x="516" y="38" type="curve"/>
      <point x="516" y="0" type="line"/>
      <point x="447" y="0"/>
      <point x="398" y="38"/>
      <point x="373" y="79" type="curve"/>
      <point x="349" y="38"/>
      <point x="303" y="-1"/>
    </contour>
    <contour>
      <point x="560" y="0" type="curve"/>
      <point x="560" y="41" type="line"/>
      <point x="631" y="41"/>
      <point x="676" y="98"/>
      <point x="685" y="134" type="curve"/>
      <point x="724" y="120" type="line"/>
      <point x="705" y="56"/>
      <point x="648" y="0"/>
    </contour>
  </outline>
</glyph>
<glyph name="uni0192" format="1">
  <advance width="382"/>
  <unicode hex="0192"/>
  <outline>
    <contour>
      <point x="26" y="-168" type="line"/>
      <point x="36" y="-130" type="line"/>
      <point x="65" y="-130" type="line" smooth="yes"/>
      <point x="126" y="-130"/>
      <point x="141" y="-86"/>
      <point x="141" y="-43" type="curve" smooth="yes"/>
      <point x="141" y="438" type="line"/>
      <point x="78" y="438" type="line"/>
      <point x="78" y="476" type="line"/>
      <point x="141" y="476" type="line"/>
      <point x="141" y="535" type="line" smooth="yes"/>
      <point x="141" y="606"/>
      <point x="192" y="695"/>
      <point x="295" y="696" type="curve" smooth="yes"/>
      <point x="356" y="696" type="line"/>
      <point x="347" y="658" type="line"/>
      <point x="320" y="658" type="line" smooth="yes"/>
      <point x="220" y="658"/>
      <point x="181" y="608"/>
      <point x="181" y="527" type="curve" smooth="yes"/>
      <point x="181" y="475" type="line"/>
      <point x="247" y="476" type="line"/>
      <point x="247" y="438" type="line"/>
      <point x="181" y="438" type="line"/>
      <point x="181" y="-30" type="line" smooth="yes"/>
      <point x="181" y="-92"/>
      <point x="169" y="-168"/>
      <point x="57" y="-168" type="curve" smooth="yes"/>
    </contour>
  </outline>
</glyph>
<glyph name="uni02C6" format="1">
  <advance width="270"/>
  <unicode hex="02C6"/>
  <outline>
    <contour>
      <point x="43" y="514" type="line"/>
      <point x="118" y="666" type="line"/>
      <point x="150" y="666" type="line"/>
      <point x="226" y="514" type="line"/>
      <point x="190" y="514" type="line"/>
      <point x="134" y="627" type="line"/>
      <point x="79" y="514" type="line"/>
    </contour>
  </outline>
</glyph>
<glyph name="uni02C7" format="1">
  <advance width="270"/>
  <unicode hex="02C7"/>
  <outline>
    <contour>
      <point x="43" y="666" type="line"/>
      <point x="79" y="666" type="line"/>
      <point x="135" y="553" type="line"/>
      <point x="190" y="666" type="line"/>
      <point x="226" y="666" type="line"/>
      <point x="151" y="514" type="line"/>
      <point x="119" y="514" type="line"/>
    </contour>
  </outline>
</glyph>
<glyph name="uni02D8" format="1">
  <advance width="244"/>
  <unicode hex="02D8"/>
  <outline>
    <contour>
      <point x="58" y="526" type="curve"/>
      <point x="90" y="526" type="line"/>
      <point x="90" y="508"/>
      <point x="104" y="494"/>
      <point x="122" y="494" type="curve" smooth="yes"/>
      <point x="140" y="494"/>
      <point x="154" y="508"/>
      <point x="154" y="526" type="curve"/>
      <point x="186" y="526" type="line"/>
      <point x="186" y="505"/>
      <point x="166" y="464"/>
      <point x="122" y="464" type="curve" smooth="yes"/>
      <point x="78" y="464"/>
      <point x="58" y="505"/>
    </contour>
  </outline>
</glyph>
<glyph name="uni02D9" format="1">
  <advance width="202"/>
  <unicode hex="02D9"/>
  <outline>
    <contour>
      <point x="71" y="678" type="curve" smooth="yes"/>
      <point x="71" y="695"/>
      <point x="84" y="709"/>
      <point x="101" y="709" type="curve" smooth="yes"/>
      <point x="118" y="709"/>
      <point x="131" y="695"/>
      <point x="131" y="678" type="curve" smooth="yes"/>
      <point x="131" y="661"/>
      <point x="118" y="648"/>
      <point x="101" y="648" type="curve" smooth="yes"/>
      <point x="84" y="648"/>
      <point x="71" y="661"/>
    </contour>
  </outline>
</glyph>
<glyph name="uni02DA" format="1">
  <advance width="244"/>
  <unicode hex="02DA"/>
  <outline>
    <contour>
      <point x="55" y="526" type="curve" smooth="yes"/>
      <point x="55" y="563"/>
      <point x="85" y="593"/>
      <point x="122" y="593" type="curve" smooth="yes"/>
      <point x="159" y="593"/>
      <point x="189" y="563"/>
      <point x="189" y="526" type="curve" smooth="yes"/>
      <point x="189" y="489"/>
      <point x="159" y="459"/>
      <point x="122" y="459" type="curve" smooth="yes"/>
      <point x="85" y="459"/>
      <point x="55" y="489"/>
    </contour>
    <contour>
      <point x="90" y="526" type="curve" smooth="yes"/>
      <point x="90" y="508"/>
      <point x="104" y="494"/>
      <point x="122" y="494" type="curve" smooth="yes"/>
      <point x="140" y="494"/>
      <point x="154" y="508"/>
      <point x="154" y="526" type="curve" smooth="yes"/>
      <point x="154" y="544"/>
      <point x="140" y="558"/>
      <point x="122" y="558" type="curve" smooth="yes"/>
      <point x="104" y="558"/>
      <point x="90" y="544"/>
    </contour>
  </outline>
</glyph>
<glyph name="uni02DC" format="1">
  <advance width="333"/>
  <unicode hex="02DC"/>
  <outline>
    <contour>
      <point x="26" y="136" type="curve"/>
      <point x="26" y="175" type="line"/>
      <point x="54" y="191"/>
      <point x="77" y="197"/>
      <point x="96" y="197" type="curve" smooth="yes"/>
      <point x="147" y="197"/>
      <point x="176" y="156"/>
      <point x="227" y="156" type="curve" smooth="yes"/>
      <point x="249" y="156"/>
      <point x="274" y="164"/>
      <point x="307" y="184" type="curve"/>
      <point x="307" y="146" type="line"/>
      <point x="273" y="125"/>
      <point x="246" y="118"/>
      <point x="223" y="118" type="curve" smooth="yes"/>
      <point x="170" y="118"/>
      <point x="140" y="158"/>
      <point x="92" y="158" type="curve" smooth="yes"/>
      <point x="74" y="158"/>
      <point x="52" y="152"/>
    </contour>
  </outline>
</glyph>
<glyph name="uni03C0" format="1">
  <advance width="421"/>
  <unicode hex="03C0"/>
  <outline>
    <contour>
      <point x="-28" y="478" type="line"/>
      <point x="-28" y="516" type="line"/>
      <point x="452" y="516" type="line"/>
      <point x="452" y="478" type="line"/>
      <point x="358" y="478" type="line"/>
      <point x="358" y="142" type="line" smooth="yes"/>
      <point x="358" y="37"/>
      <point x="401" y="34"/>
      <point x="438" y="34" type="curve"/>
      <point x="438" y="-4" type="line"/>
      <point x="339" y="-4"/>
      <point x="318" y="64"/>
      <point x="318" y="133" type="curve" smooth="yes"/>
      <point x="318" y="478" type="line"/>
      <point x="108" y="478" type="line"/>
      <point x="108" y="-4" type="line"/>
      <point x="68" y="-4" type="line"/>
      <point x="68" y="478" type="line"/>
    </contour>
  </outline>
</glyph>
<glyph name="uni2020" format="1">
  <advance width="453"/>
  <unicode hex="2020"/>
  <outline>
    <contour>
      <point x="26" y="493" type="line"/>
      <point x="26" y="531" type="line"/>
      <point x="206" y="531" type="line"/>
      <point x="206" y="764" type="line"/>
      <point x="246" y="764" type="line"/>
      <point x="246" y="531" type="line"/>
      <point x="427" y="531" type="line"/>
      <point x="427" y="493" type="line"/>
      <point x="246" y="493" type="line"/>
      <point x="246" y="-56" type="line"/>
      <point x="206" y="-56" type="line"/>
      <point x="206" y="493" type="line"/>
    </contour>
  </outline>
</glyph>
<glyph name="uni2021" format="1">
  <advance width="453"/>
  <unicode hex="2021"/>
  <outline>
    <contour>
      <point x="26" y="174" type="line"/>
      <point x="26" y="212" type="line"/>
      <point x="207" y="212" type="line"/>
      <point x="207" y="496" type="line"/>
      <point x="26" y="496" type="line"/>
      <point x="26" y="534" type="line"/>
      <point x="207" y="534" type="line"/>
      <point x="207" y="764" type="line"/>
      <point x="247" y="764" type="line"/>
      <point x="247" y="534" type="line"/>
      <point x="427" y="534" type="line"/>
      <point x="427" y="496" type="line"/>
      <point x="247" y="496" type="line"/>
      <point x="247" y="212" type="line"/>
      <point x="427" y="212" type="line"/>
      <point x="427" y="174" type="line"/>
      <point x="247" y="174" type="line"/>
      <point x="247" y="-56" type="line"/>
      <point x="207" y="-56" type="line"/>
      <point x="207" y="174" type="line"/>
    </contour>
  </outline>
</glyph>
<glyph name="uni2022" format="1">
  <advance width="352"/>
  <unicode hex="2022"/>
  <outline>
    <contour>
      <point x="116" y="345" type="curve" smooth="yes"/>
      <point x="116" y="379"/>
      <point x="142" y="405"/>
      <point x="176" y="405" type="curve" smooth="yes"/>
      <point x="210" y="405"/>
      <point x="236" y="379"/>
      <point x="236" y="345" type="curve" smooth="yes"/>
      <point x="236" y="311"/>
      <point x="210" y="285"/>
      <point x="176" y="285" type="curve" smooth="yes"/>
      <point x="142" y="285"/>
      <point x="116" y="311"/>
    </contour>
  </outline>
</glyph>
<glyph name="uni2030" format="1">
  <advance width="897"/>
  <unicode hex="2030"/>
  <outline>
    <contour>
      <point x="90" y="-2" type="line"/>
      <point x="522" y="702" type="line"/>
      <point x="547" y="702" type="line"/>
      <point x="115" y="-2" type="line"/>
    </contour>
    <component base="uni0030" xScale="0.5" yScale="0.5" xOffset="545" yOffset="2"/>
    <component base="uni0030" xScale="0.5" yScale="0.5" xOffset="286" yOffset="2"/>
    <component base="uni0030" xScale="0.5" yScale="0.5" xOffset="-81" yOffset="352"/>
  </outline>
</glyph>
<glyph name="uni2039" format="1">
  <advance width="338"/>
  <unicode hex="2039"/>
  <outline>
    <contour>
      <point x="76" y="292" type="line"/>
      <point x="207" y="500" type="line"/>
      <point x="257" y="500" type="line"/>
      <point x="126" y="292" type="line"/>
      <point x="257" y="79" type="line"/>
      <point x="207" y="79" type="line"/>
    </contour>
  </outline>
</glyph>
<glyph name="uni2044" format="1">
  <advance width="897"/>
  <unicode hex="2044"/>
  <outline>
    <contour>
      <point x="53" y="-2" type="line"/>
      <point x="485" y="702" type="line"/>
      <point x="510" y="702" type="line"/>
      <point x="78" y="-2" type="line"/>
    </contour>
  </outline>
</glyph>
<glyph name="uni20AC" format="1">
  <advance width="494"/>
  <unicode hex="20AC"/>
  <outline>
    <contour>
      <point x="51" y="292" type="line"/>
      <point x="51" y="317" type="line"/>
      <point x="89" y="317" type="line"/>
      <point x="89" y="377" type="line"/>
      <point x="51" y="377" type="line"/>
      <point x="51" y="402" type="line"/>
      <point x="89" y="402" type="line"/>
      <point x="89" y="518" type="line" smooth="yes"/>
      <point x="89" y="578"/>
      <point x="143" y="706"/>
      <point x="290" y="705" type="curve"/>
      <point x="290" y="667" type="line"/>
      <point x="176" y="667"/>
      <point x="129" y="568"/>
      <point x="129" y="518" type="curve" smooth="yes"/>
      <point x="129" y="402" type="line"/>
      <point x="409" y="402" type="line"/>
      <point x="409" y="377" type="line"/>
      <point x="129" y="377" type="line"/>
      <point x="129" y="317" type="line"/>
      <point x="409" y="317" type="line"/>
      <point x="409" y="292" type="line"/>
      <point x="129" y="292" type="line"/>
      <point x="129" y="181" type="line" smooth="yes"/>
      <point x="129" y="131"/>
      <point x="177" y="33"/>
      <point x="290" y="33" type="curve"/>
      <point x="290" y="-5" type="line"/>
      <point x="142" y="-5"/>
      <point x="89" y="121"/>
      <point x="89" y="181" type="curve" smooth="yes"/>
      <point x="89" y="292" type="line"/>
    </contour>
    <contour>
      <point x="335" y="-5" type="curve"/>
      <point x="335" y="33" type="line"/>
      <point x="335" y="33"/>
      <point x="451" y="35"/>
      <point x="482" y="139" type="curve" smooth="yes"/>
      <point x="488" y="159"/>
      <point x="491" y="185"/>
      <point x="491" y="190" type="curve"/>
      <point x="525" y="182" type="line"/>
      <point x="525" y="76"/>
      <point x="432" y="-5"/>
    </contour>
    <contour>
      <point x="335" y="667" type="curve"/>
      <point x="335" y="705" type="line"/>
      <point x="432" y="706"/>
      <point x="525" y="612"/>
      <point x="525" y="516" type="curve"/>
      <point x="489" y="507" type="line"/>
      <point x="489" y="520"/>
      <point x="488" y="534"/>
      <point x="482" y="550" type="curve" smooth="yes"/>
      <point x="441" y="666"/>
      <point x="335" y="667"/>
    </contour>
  </outline>
</glyph>
<glyph name="uni2126" format="1">
  <advance width="420"/>
  <unicode hex="2126"/>
  <outline>
    <contour>
      <point x="20" y="-1" type="line"/>
      <point x="20" y="29" type="line"/>
      <point x="101" y="29" type="line"/>
      <point x="56" y="61"/>
      <point x="35" y="110"/>
      <point x="35" y="141" type="curve" smooth="yes"/>
      <point x="35" y="376" type="line" smooth="yes"/>
      <point x="35" y="425"/>
      <point x="89" y="516"/>
      <point x="199" y="516" type="curve"/>
      <point x="199" y="478" type="line"/>
      <point x="119" y="478"/>
      <point x="75" y="410"/>
      <point x="75" y="363" type="curve" smooth="yes"/>
      <point x="75" y="154" type="line" smooth="yes"/>
      <point x="75" y="111"/>
      <point x="126" y="37"/>
      <point x="199" y="37" type="curve"/>
      <point x="199" y="-1" type="line" smooth="yes"/>
      <point x="197" y="-1"/>
      <point x="195" y="-1"/>
      <point x="193" y="-1" type="curve" smooth="yes"/>
      <point x="193" y="-1" type="line"/>
    </contour>
    <contour>
      <point x="240" y="-1" type="curve" smooth="yes"/>
      <point x="240" y="37" type="line"/>
      <point x="315" y="37"/>
      <point x="359" y="108"/>
      <point x="359" y="152" type="curve" smooth="yes"/>
      <point x="359" y="363" type="line" smooth="yes"/>
      <point x="359" y="408"/>
      <point x="315" y="478"/>
      <point x="240" y="478" type="curve"/>
      <point x="240" y="516" type="line"/>
      <point x="348" y="516"/>
      <point x="399" y="425"/>
      <point x="399" y="376" type="curve" smooth="yes"/>
      <point x="399" y="141" type="line" smooth="yes"/>
      <point x="399" y="110"/>
      <point x="378" y="61"/>
      <point x="335" y="29" type="curve"/>
      <point x="414" y="29" type="line"/>
      <point x="414" y="-1" type="line"/>
      <point x="243" y="-1" type="line"/>
      <point x="243" y="-1" type="line" smooth="yes"/>
      <point x="242" y="-1"/>
      <point x="241" y="-1"/>
    </contour>
  </outline>
</glyph>
<glyph name="uni212E" format="1">
  <advance width="449"/>
  <unicode hex="212E"/>
  <outline>
    <contour>
      <point x="22" y="141" type="curve" smooth="yes"/>
      <point x="22" y="377" type="line"/>
      <point x="22" y="432"/>
      <point x="94" y="516"/>
      <point x="214" y="516" type="curve"/>
      <point x="214" y="478" type="line"/>
      <point x="134" y="478"/>
      <point x="62" y="417"/>
      <point x="62" y="369" type="curve" smooth="yes"/>
      <point x="62" y="285" type="line"/>
      <point x="401" y="285" type="line"/>
      <point x="401" y="369" type="line" smooth="yes"/>
      <point x="401" y="428"/>
      <point x="320" y="480"/>
      <point x="259" y="480" type="curve"/>
      <point x="259" y="516" type="line"/>
      <point x="335" y="516"/>
      <point x="441" y="453"/>
      <point x="441" y="378" type="curve" smooth="yes"/>
      <point x="441" y="247" type="line"/>
      <point x="62" y="247" type="line"/>
      <point x="62" y="141" type="line" smooth="yes"/>
      <point x="62" y="82"/>
      <point x="141" y="38"/>
      <point x="215" y="38" type="curve"/>
      <point x="215" y="0" type="line"/>
      <point x="94" y="0"/>
      <point x="22" y="66"/>
    </contour>
    <contour>
      <point x="259" y="0" type="curve"/>
      <point x="259" y="41" type="line"/>
      <point x="330" y="41"/>
      <point x="394" y="92"/>
      <point x="403" y="134" type="curve"/>
      <point x="442" y="120" type="line"/>
      <point x="423" y="56"/>
      <point x="347" y="0"/>
    </contour>
  </outline>
</glyph>
<glyph name="uni2202" format="1">
  <advance width="420"/>
  <unicode hex="2202"/>
  <outline>
    <contour>
      <point x="28" y="141" type="curve" smooth="yes"/>
      <point x="28" y="376" type="line" smooth="yes"/>
      <point x="28" y="425"/>
      <point x="82" y="516"/>
      <point x="192" y="516" type="curve"/>
      <point x="192" y="478" type="line"/>
      <point x="112" y="478"/>
      <point x="68" y="410"/>
      <point x="68" y="363" type="curve" smooth="yes"/>
      <point x="68" y="154" type="line" smooth="yes"/>
      <point x="68" y="111"/>
      <point x="119" y="37"/>
      <point x="192" y="37" type="curve"/>
      <point x="192" y="-1" type="line"/>
      <point x="80" y="-1"/>
      <point x="28" y="93"/>
    </contour>
    <contour>
      <point x="70" y="686" type="curve"/>
      <point x="70" y="714" type="line"/>
      <point x="290" y="714"/>
      <point x="392" y="648"/>
      <point x="392" y="450" type="curve" smooth="yes"/>
      <point x="392" y="141" type="line" smooth="yes"/>
      <point x="392" y="92"/>
      <point x="341" y="-1"/>
      <point x="233" y="-1" type="curve"/>
      <point x="233" y="37" type="line"/>
      <point x="308" y="37"/>
      <point x="352" y="108"/>
      <point x="352" y="152" type="curve" smooth="yes"/>
      <point x="351" y="373" type="line" smooth="yes"/>
      <point x="351" y="418"/>
      <point x="303" y="478"/>
      <point x="233" y="478" type="curve"/>
      <point x="233" y="516" type="line"/>
      <point x="283" y="516"/>
      <point x="321" y="497"/>
      <point x="347" y="471" type="curve"/>
      <point x="347" y="650"/>
      <point x="203" y="686"/>
    </contour>
  </outline>
</glyph>
<glyph name="uni220F" format="1">
  <advance width="458"/>
  <unicode hex="220F"/>
  <outline>
    <contour>
      <point x="2" y="659" type="line"/>
      <point x="63" y="659" type="line"/>
      <point x="63" y="-140" type="line"/>
      <point x="100" y="-140" type="line"/>
      <point x="100" y="659" type="line"/>
      <point x="357" y="659" type="line"/>
      <point x="357" y="-140" type="line"/>
      <point x="394" y="-140" type="line"/>
      <point x="394" y="659" type="line"/>
      <point x="456" y="659" type="line"/>
      <point x="456" y="694" type="line"/>
      <point x="2" y="694" type="line"/>
    </contour>
  </outline>
</glyph>
<glyph name="uni2211" format="1">
  <advance width="676"/>
  <unicode hex="2211"/>
  <outline>
    <contour>
      <point x="-2" y="-28" type="line"/>
      <point x="-2" y="-140" type="line"/>
      <point x="496" y="-140" type="line"/>
      <point x="496" y="-28" type="line"/>
    </contour>
    <contour>
      <point x="-2" y="593" type="line"/>
      <point x="230" y="310" type="line"/>
      <point x="-1" y="27" type="line"/>
      <point x="-1" y="17" type="line"/>
      <point x="144" y="17" type="line"/>
      <point x="353" y="261" type="line"/>
      <point x="353" y="358" type="line"/>
      <point x="68" y="703" type="line"/>
      <point x="-2" y="703" type="line"/>
    </contour>
    <contour>
      <point x="136" y="694" type="line"/>
      <point x="219" y="591" type="line"/>
      <point x="496" y="591" type="line"/>
      <point x="496" y="703" type="line"/>
      <point x="136" y="703" type="line"/>
    </contour>
  </outline>
</glyph>
<glyph name="uni221A" format="1">
  <advance width="560"/>
  <unicode hex="221A"/>
  <outline>
    <contour>
      <point x="6" y="513" type="line"/>
      <point x="160" y="568" type="line"/>
      <point x="366" y="58" type="line"/>
      <point x="509" y="819" type="line"/>
      <point x="534" y="819" type="line"/>
      <point x="383" y="-2" type="line"/>
      <point x="353" y="-2" type="line"/>
      <point x="141" y="528" type="line"/>
      <point x="15" y="483" type="line"/>
    </contour>
  </outline>
</glyph>
<glyph name="uni221E" format="1">
  <advance width="420"/>
  <unicode hex="221E"/>
  <outline>
    <contour>
      <point x="28" y="174" type="curve" smooth="yes"/>
      <point x="28" y="409" type="line" smooth="yes"/>
      <point x="28" y="454"/>
      <point x="79" y="549"/>
      <point x="186" y="549" type="curve" smooth="yes"/>
      <point x="192" y="549" type="line"/>
      <point x="192" y="431" type="line"/>
      <point x="186" y="431" type="line" smooth="yes"/>
      <point x="153" y="431"/>
      <point x="148" y="406"/>
      <point x="148" y="396" type="curve"/>
      <point x="148" y="187" type="line"/>
      <point x="148" y="168"/>
      <point x="156" y="150"/>
      <point x="186" y="150" type="curve" smooth="yes"/>
      <point x="192" y="150" type="line"/>
      <point x="192" y="32" type="line"/>
      <point x="186" y="32" type="line" smooth="yes"/>
      <point x="78" y="32"/>
      <point x="28" y="130"/>
    </contour>
    <contour>
      <point x="233" y="32" type="line"/>
      <point x="233" y="150" type="line"/>
      <point x="239" y="150" type="line" smooth="yes"/>
      <point x="270" y="151"/>
      <point x="275" y="174"/>
      <point x="275" y="185" type="curve"/>
      <point x="275" y="396" type="line"/>
      <point x="275" y="413"/>
      <point x="269" y="431"/>
      <point x="239" y="431" type="curve" smooth="yes"/>
      <point x="233" y="431" type="line"/>
      <point x="233" y="549" type="line"/>
      <point x="239" y="549" type="line" smooth="yes"/>
      <point x="342" y="549"/>
      <point x="392" y="454"/>
      <point x="392" y="409" type="curve" smooth="yes"/>
      <point x="392" y="174" type="line" smooth="yes"/>
      <point x="392" y="129"/>
      <point x="343" y="32"/>
      <point x="239" y="32" type="curve" smooth="yes"/>
    </contour>
    <contour>
      <point x="437" y="167" type="curve" smooth="yes"/>
      <point x="437" y="425" type="line" smooth="yes"/>
      <point x="437" y="474"/>
      <point x="493" y="579"/>
      <point x="610" y="579" type="curve" smooth="yes"/>
      <point x="616" y="579" type="line"/>
      <point x="616" y="449" type="line"/>
      <point x="610" y="449" type="line" smooth="yes"/>
      <point x="574" y="449"/>
      <point x="568" y="422"/>
      <point x="568" y="411" type="curve"/>
      <point x="568" y="181" type="line"/>
      <point x="568" y="160"/>
      <point x="577" y="141"/>
      <point x="610" y="141" type="curve" smooth="yes"/>
      <point x="616" y="141" type="line"/>
      <point x="616" y="11" type="line"/>
      <point x="610" y="11" type="line" smooth="yes"/>
      <point x="491" y="11"/>
      <point x="437" y="119"/>
    </contour>
    <contour>
      <point x="661" y="11" type="line"/>
      <point x="661" y="141" type="line"/>
      <point x="668" y="141" type="line" smooth="yes"/>
      <point x="702" y="142"/>
      <point x="708" y="167"/>
      <point x="708" y="179" type="curve"/>
      <point x="708" y="411" type="line"/>
      <point x="708" y="430"/>
      <point x="701" y="449"/>
      <point x="668" y="449" type="curve" smooth="yes"/>
      <point x="661" y="449" type="line"/>
      <point x="661" y="579" type="line"/>
      <point x="668" y="579" type="line" smooth="yes"/>
      <point x="781" y="579"/>
      <point x="836" y="474"/>
      <point x="836" y="425" type="curve" smooth="yes"/>
      <point x="836" y="167" type="line" smooth="yes"/>
      <point x="836" y="118"/>
      <point x="782" y="11"/>
      <point x="668" y="11" type="curve" smooth="yes"/>
    </contour>
  </outline>
</glyph>
<glyph name="uni222B" format="1">
  <advance width="285"/>
  <unicode hex="222B"/>
  <outline>
    <contour>
      <point x="1" y="-144" type="curve"/>
      <point x="1" y="-171" type="line"/>
      <point x="68" y="-191"/>
      <point x="159" y="-147"/>
      <point x="159" y="-3" type="curve" smooth="yes"/>
      <point x="159" y="625" type="line" smooth="yes"/>
      <point x="159" y="757"/>
      <point x="232" y="786"/>
      <point x="282" y="768" type="curve"/>
      <point x="282" y="795" type="line"/>
      <point x="222" y="815"/>
      <point x="127" y="769"/>
      <point x="127" y="625" type="curve" smooth="yes"/>
      <point x="127" y="-3" type="line"/>
      <point x="127" y="-148"/>
      <point x="48" y="-157"/>
    </contour>
  </outline>
</glyph>
<glyph name="uni2248" format="1">
  <advance width="568"/>
  <unicode hex="2248"/>
  <outline>
    <contour>
      <point x="50" y="261" type="curve"/>
      <point x="50" y="297" type="line"/>
      <point x="95" y="323"/>
      <point x="132" y="332"/>
      <point x="163" y="332" type="curve" smooth="yes"/>
      <point x="250" y="332"/>
      <point x="299" y="259"/>
      <point x="387" y="259" type="curve" smooth="yes"/>
      <point x="422" y="259"/>
      <point x="464" y="271"/>
      <point x="518" y="304" type="curve"/>
      <point x="518" y="270" type="line"/>
      <point x="462" y="236"/>
      <point x="418" y="224"/>
      <point x="381" y="224" type="curve" smooth="yes"/>
      <point x="289" y="224"/>
      <point x="239" y="297"/>
      <point x="157" y="297" type="curve" smooth="yes"/>
      <point x="127" y="297"/>
      <point x="92" y="288"/>
    </contour>
    <contour>
      <point x="50" y="402" type="curve"/>
      <point x="50" y="439" type="line"/>
      <point x="95" y="465"/>
      <point x="132" y="474"/>
      <point x="163" y="474" type="curve" smooth="yes"/>
      <point x="250" y="474"/>
      <point x="299" y="401"/>
      <point x="387" y="401" type="curve" smooth="yes"/>
      <point x="422" y="401"/>
      <point x="464" y="413"/>
      <point x="518" y="446" type="curve"/>
      <point x="518" y="411" type="line"/>
      <point x="462" y="377"/>
      <point x="418" y="365"/>
      <point x="381" y="365" type="curve" smooth="yes"/>
      <point x="289" y="365"/>
      <point x="239" y="438"/>
      <point x="157" y="438" type="curve" smooth="yes"/>
      <point x="127" y="438"/>
      <point x="92" y="429"/>
    </contour>
  </outline>
</glyph>
<glyph name="uni2264" format="1">
  <advance width="414"/>
  <unicode hex="2264"/>
  <outline>
    <contour>
      <point x="27" y="53" type="line"/>
      <point x="27" y="91" type="line"/>
      <point x="384" y="91" type="line"/>
      <point x="384" y="53" type="line"/>
    </contour>
    <component base="uni003C" xOffset="-14" yOffset="66"/>
  </outline>
</glyph>
<glyph name="uni2265" format="1">
  <advance width="414"/>
  <unicode hex="2265"/>
  <outline>
    <contour>
      <point x="27" y="53" type="line"/>
      <point x="27" y="91" type="line"/>
      <point x="384" y="91" type="line"/>
      <point x="384" y="53" type="line"/>
    </contour>
    <component base="uni003E" yOffset="66"/>
  </outline>
</glyph>
<glyph name="uni25CA" format="1">
  <advance width="427"/>
  <unicode hex="25CA"/>
  <outline>
    <contour>
      <point x="-3" y="352" type="line"/>
      <point x="194" y="706" type="line"/>
      <point x="226" y="706" type="line"/>
      <point x="418" y="352" type="line"/>
      <point x="221" y="-2" type="line"/>
      <point x="189" y="-2" type="line"/>
    </contour>
    <contour>
      <point x="37" y="352" type="line"/>
      <point x="205" y="44" type="line"/>
      <point x="378" y="352" type="line"/>
      <point x="210" y="660" type="line"/>
    </contour>
  </outline>
</glyph>
<glyph name="uniFB01" format="1">
  <advance width="494"/>
  <unicode hex="FB01"/>
  <outline>
    <contour>
      <point x="66" y="439" type="line"/>
      <point x="66" y="477" type="line"/>
      <point x="129" y="477" type="line"/>
      <point x="129" y="552" type="line" smooth="yes"/>
      <point x="129" y="597"/>
      <point x="142" y="696"/>
      <point x="248" y="696" type="curve" smooth="yes"/>
      <point x="259" y="696" type="line"/>
      <point x="250" y="658" type="line"/>
      <point x="180" y="658"/>
      <point x="169" y="601"/>
      <point x="169" y="552" type="curve" smooth="yes"/>
      <point x="169" y="476" type="line"/>
      <point x="315" y="476" type="line"/>
      <point x="315" y="0" type="line"/>
      <point x="275" y="0" type="line"/>
      <point x="275" y="439" type="line"/>
      <point x="169" y="439" type="line"/>
      <point x="169" y="0" type="line"/>
      <point x="129" y="0" type="line"/>
      <point x="129" y="439" type="line"/>
    </contour>
    <contour>
      <point x="267" y="583" type="curve" smooth="yes"/>
      <point x="267" y="598"/>
      <point x="280" y="610"/>
      <point x="295" y="610" type="curve" smooth="yes"/>
      <point x="310" y="610"/>
      <point x="322" y="598"/>
      <point x="322" y="583" type="curve" smooth="yes"/>
      <point x="322" y="568"/>
      <point x="310" y="556"/>
      <point x="295" y="556" type="curve" smooth="yes"/>
      <point x="280" y="556"/>
      <point x="267" y="568"/>
    </contour>
  </outline>
</glyph>
